<svg width="1484" height="50" viewBox="0 0 1484 50" fill="none" xmlns="http://www.w3.org/2000/svg">
<rect width="1484" height="50" rx="12" fill="#02477B" fill-opacity="0.5"/>
<path d="M23.9999 23L23.2929 23.707L22.5859 23L23.2929 22.293L23.9999 23ZM40.9999 31C40.9999 31.2652 40.8946 31.5196 40.707 31.7071C40.5195 31.8947 40.2652 32 39.9999 32C39.7347 32 39.4804 31.8947 39.2928 31.7071C39.1053 31.5196 38.9999 31.2652 38.9999 31H40.9999ZM28.2929 28.707L23.2929 23.707L24.7069 22.293L29.7069 27.293L28.2929 28.707ZM23.2929 22.293L28.2929 17.293L29.7069 18.707L24.7069 23.707L23.2929 22.293ZM23.9999 22H33.9999V24H23.9999V22ZM40.9999 29V31H38.9999V29H40.9999ZM33.9999 22C35.8565 22 37.6369 22.7375 38.9497 24.0503C40.2624 25.363 40.9999 27.1435 40.9999 29H38.9999C38.9999 27.6739 38.4732 26.4022 37.5355 25.4645C36.5978 24.5268 35.326 24 33.9999 24V22Z" fill="white"/>
<path d="M68.864 19.576C69.8347 19.576 70.6453 19.6667 71.296 19.848C71.9573 20.0293 72.4533 20.3333 72.784 20.76C73.1253 21.176 73.296 21.7307 73.296 22.424C73.296 22.872 73.216 23.272 73.056 23.624C72.896 23.9653 72.6613 24.2533 72.352 24.488C72.0533 24.712 71.68 24.8613 71.232 24.936V25.016C71.6907 25.0907 72.1013 25.2293 72.464 25.432C72.8267 25.624 73.1147 25.9067 73.328 26.28C73.5413 26.6533 73.648 27.1387 73.648 27.736C73.648 28.4293 73.4827 29.0213 73.152 29.512C72.832 29.992 72.368 30.36 71.76 30.616C71.1627 30.872 70.448 31 69.616 31H65.52V19.576H68.864ZM69.152 24.344C70.048 24.344 70.6613 24.2 70.992 23.912C71.3333 23.624 71.504 23.1973 71.504 22.632C71.504 22.056 71.3013 21.6453 70.896 21.4C70.4907 21.1547 69.8453 21.032 68.96 21.032H67.248V24.344H69.152ZM67.248 25.752V29.56H69.344C70.272 29.56 70.9173 29.3787 71.28 29.016C71.6427 28.6533 71.824 28.1733 71.824 27.576C71.824 27.2133 71.744 26.8933 71.584 26.616C71.424 26.3387 71.152 26.1253 70.768 25.976C70.3947 25.8267 69.8827 25.752 69.232 25.752H67.248ZM79.172 22.216C80.26 22.216 81.0707 22.456 81.604 22.936C82.1373 23.4053 82.404 24.1467 82.404 25.16V31H81.204L80.868 29.8H80.804C80.5587 30.1093 80.3027 30.3653 80.036 30.568C79.78 30.7707 79.4813 30.92 79.14 31.016C78.8093 31.112 78.404 31.16 77.924 31.16C77.412 31.16 76.948 31.0693 76.532 30.888C76.1267 30.696 75.8067 30.408 75.572 30.024C75.3373 29.6293 75.22 29.1387 75.22 28.552C75.22 27.6773 75.5507 27.0107 76.212 26.552C76.884 26.0933 77.9027 25.8427 79.268 25.8L80.74 25.752V25.272C80.74 24.632 80.596 24.184 80.308 23.928C80.02 23.672 79.6147 23.544 79.092 23.544C78.644 23.544 78.2173 23.608 77.812 23.736C77.4067 23.864 77.0227 24.0187 76.66 24.2L76.116 22.968C76.5213 22.7547 76.9853 22.5787 77.508 22.44C78.0413 22.2907 78.596 22.216 79.172 22.216ZM79.572 26.888C78.5907 26.9307 77.908 27.096 77.524 27.384C77.1507 27.6613 76.964 28.056 76.964 28.568C76.964 29.016 77.0973 29.3413 77.364 29.544C77.6413 29.7467 77.988 29.848 78.404 29.848C79.076 29.848 79.6307 29.6613 80.068 29.288C80.5053 28.9147 80.724 28.3547 80.724 27.608V26.856L79.572 26.888ZM88.4875 31.16C87.6982 31.16 87.0048 31.0053 86.4075 30.696C85.8102 30.3867 85.3462 29.9067 85.0155 29.256C84.6848 28.5947 84.5195 27.7573 84.5195 26.744C84.5195 25.6773 84.6955 24.8133 85.0475 24.152C85.4102 23.4907 85.8955 23.0053 86.5035 22.696C87.1222 22.376 87.8262 22.216 88.6155 22.216C89.0955 22.216 89.5435 22.2693 89.9595 22.376C90.3862 22.472 90.7382 22.584 91.0155 22.712L90.5035 24.088C90.2048 23.9707 89.8848 23.8693 89.5435 23.784C89.2128 23.6987 88.8982 23.656 88.5995 23.656C88.0662 23.656 87.6235 23.7733 87.2715 24.008C86.9302 24.232 86.6742 24.5733 86.5035 25.032C86.3435 25.48 86.2635 26.0453 86.2635 26.728C86.2635 27.3787 86.3488 27.928 86.5195 28.376C86.6902 28.824 86.9408 29.1653 87.2715 29.4C87.6128 29.624 88.0342 29.736 88.5355 29.736C89.0155 29.736 89.4368 29.6827 89.7995 29.576C90.1622 29.4693 90.5035 29.3307 90.8235 29.16V30.632C90.5142 30.8133 90.1782 30.9467 89.8155 31.032C89.4528 31.1173 89.0102 31.16 88.4875 31.16ZM94.5393 24.92C94.5393 25.144 94.5286 25.4 94.5073 25.688C94.4966 25.976 94.4806 26.2427 94.4593 26.488H94.5073C94.5926 26.3813 94.6939 26.2533 94.8113 26.104C94.9393 25.944 95.0673 25.784 95.1953 25.624C95.3233 25.464 95.4406 25.3253 95.5473 25.208L98.1873 22.376H100.155L96.6833 26.072L100.379 31H98.3793L95.5312 27.144L94.5393 27.976V31H92.8593V18.84H94.5393V24.92ZM109.057 29.784C109.281 29.784 109.51 29.7627 109.745 29.72C109.98 29.6773 110.182 29.6293 110.353 29.576V30.856C110.172 30.9413 109.926 31.0107 109.617 31.064C109.308 31.128 108.998 31.16 108.689 31.16C108.22 31.16 107.788 31.08 107.393 30.92C107.009 30.76 106.7 30.4827 106.465 30.088C106.23 29.6933 106.113 29.144 106.113 28.44V23.672H104.913V22.904L106.177 22.264L106.769 20.44H107.809V22.376H110.273V23.672H107.809V28.408C107.809 28.8773 107.921 29.224 108.145 29.448C108.38 29.672 108.684 29.784 109.057 29.784ZM119.678 26.68C119.678 27.3947 119.582 28.0293 119.39 28.584C119.198 29.1387 118.926 29.608 118.574 29.992C118.222 30.376 117.795 30.6693 117.294 30.872C116.793 31.064 116.227 31.16 115.598 31.16C115.022 31.16 114.489 31.064 113.998 30.872C113.507 30.6693 113.081 30.376 112.718 29.992C112.366 29.608 112.089 29.1387 111.886 28.584C111.683 28.0293 111.582 27.3893 111.582 26.664C111.582 25.7147 111.742 24.9093 112.062 24.248C112.393 23.5867 112.862 23.0853 113.47 22.744C114.089 22.392 114.814 22.216 115.646 22.216C116.435 22.216 117.129 22.392 117.726 22.744C118.334 23.0853 118.809 23.5867 119.15 24.248C119.502 24.9093 119.678 25.72 119.678 26.68ZM113.326 26.68C113.326 27.32 113.406 27.8747 113.566 28.344C113.726 28.8027 113.977 29.1547 114.318 29.4C114.659 29.6453 115.097 29.768 115.63 29.768C116.163 29.768 116.601 29.6453 116.942 29.4C117.283 29.1547 117.534 28.8027 117.694 28.344C117.854 27.8747 117.934 27.32 117.934 26.68C117.934 26.0187 117.849 25.464 117.678 25.016C117.518 24.568 117.267 24.2267 116.926 23.992C116.595 23.7467 116.158 23.624 115.614 23.624C114.814 23.624 114.233 23.8907 113.87 24.424C113.507 24.9573 113.326 25.7093 113.326 26.68ZM129.088 29.784C129.312 29.784 129.542 29.7627 129.776 29.72C130.011 29.6773 130.214 29.6293 130.384 29.576V30.856C130.203 30.9413 129.958 31.0107 129.648 31.064C129.339 31.128 129.03 31.16 128.72 31.16C128.251 31.16 127.819 31.08 127.424 30.92C127.04 30.76 126.731 30.4827 126.496 30.088C126.262 29.6933 126.144 29.144 126.144 28.44V23.672H124.944V22.904L126.208 22.264L126.8 20.44H127.84V22.376H130.304V23.672H127.84V28.408C127.84 28.8773 127.952 29.224 128.176 29.448C128.411 29.672 128.715 29.784 129.088 29.784ZM133.805 22.088C133.805 22.3547 133.795 22.6213 133.773 22.888C133.752 23.1547 133.731 23.3733 133.709 23.544H133.821C134.003 23.2453 134.227 23 134.493 22.808C134.771 22.616 135.075 22.472 135.405 22.376C135.747 22.28 136.093 22.232 136.445 22.232C137.128 22.232 137.699 22.344 138.157 22.568C138.627 22.7813 138.979 23.1227 139.213 23.592C139.459 24.0507 139.581 24.648 139.581 25.384V31H137.901V25.624C137.901 24.952 137.757 24.4507 137.469 24.12C137.192 23.7787 136.744 23.608 136.125 23.608C135.539 23.608 135.075 23.7253 134.733 23.96C134.403 24.1947 134.163 24.5413 134.013 25C133.875 25.448 133.805 26.0027 133.805 26.664V31H132.109V18.84H133.805V22.088ZM145.579 22.216C146.337 22.216 146.987 22.376 147.531 22.696C148.075 23.0053 148.491 23.4533 148.779 24.04C149.078 24.6267 149.227 25.32 149.227 26.12V27.048H143.435C143.457 27.9333 143.686 28.6107 144.123 29.08C144.571 29.5493 145.195 29.784 145.995 29.784C146.55 29.784 147.041 29.736 147.467 29.64C147.905 29.5333 148.353 29.3787 148.811 29.176V30.584C148.385 30.776 147.947 30.92 147.499 31.016C147.062 31.112 146.539 31.16 145.931 31.16C145.099 31.16 144.363 30.9947 143.723 30.664C143.083 30.3333 142.582 29.8427 142.219 29.192C141.867 28.5307 141.691 27.72 141.691 26.76C141.691 25.7893 141.851 24.968 142.171 24.296C142.502 23.624 142.955 23.112 143.531 22.76C144.118 22.3973 144.801 22.216 145.579 22.216ZM145.579 23.528C144.971 23.528 144.481 23.7253 144.107 24.12C143.745 24.5147 143.531 25.0747 143.467 25.8H147.531C147.531 25.352 147.462 24.9573 147.323 24.616C147.185 24.2747 146.971 24.008 146.683 23.816C146.395 23.624 146.027 23.528 145.579 23.528ZM165.164 22.216C166.135 22.216 166.865 22.4667 167.356 22.968C167.847 23.4693 168.092 24.2747 168.092 25.384V31H166.396V25.608C166.396 24.9467 166.263 24.4507 165.996 24.12C165.74 23.7787 165.335 23.608 164.78 23.608C164.012 23.608 163.463 23.848 163.132 24.328C162.801 24.7973 162.636 25.48 162.636 26.376V31H160.956V25.608C160.956 25.1707 160.892 24.8027 160.764 24.504C160.647 24.2053 160.471 23.9813 160.236 23.832C160.001 23.6827 159.697 23.608 159.324 23.608C158.791 23.608 158.369 23.7253 158.06 23.96C157.751 24.1947 157.527 24.5413 157.388 25C157.26 25.448 157.196 25.9973 157.196 26.648V31H155.5V22.376H156.844L157.084 23.528H157.18C157.361 23.2293 157.58 22.984 157.836 22.792C158.103 22.6 158.396 22.456 158.716 22.36C159.036 22.264 159.367 22.216 159.708 22.216C160.359 22.216 160.908 22.3333 161.356 22.568C161.804 22.792 162.129 23.1387 162.332 23.608H162.46C162.737 23.128 163.121 22.776 163.612 22.552C164.103 22.328 164.62 22.216 165.164 22.216ZM174.031 22.216C175.119 22.216 175.93 22.456 176.463 22.936C176.997 23.4053 177.263 24.1467 177.263 25.16V31H176.063L175.727 29.8H175.663C175.418 30.1093 175.162 30.3653 174.895 30.568C174.639 30.7707 174.341 30.92 173.999 31.016C173.669 31.112 173.263 31.16 172.783 31.16C172.271 31.16 171.807 31.0693 171.391 30.888C170.986 30.696 170.666 30.408 170.431 30.024C170.197 29.6293 170.079 29.1387 170.079 28.552C170.079 27.6773 170.41 27.0107 171.071 26.552C171.743 26.0933 172.762 25.8427 174.127 25.8L175.599 25.752V25.272C175.599 24.632 175.455 24.184 175.167 23.928C174.879 23.672 174.474 23.544 173.951 23.544C173.503 23.544 173.077 23.608 172.671 23.736C172.266 23.864 171.882 24.0187 171.519 24.2L170.975 22.968C171.381 22.7547 171.845 22.5787 172.367 22.44C172.901 22.2907 173.455 22.216 174.031 22.216ZM174.431 26.888C173.45 26.9307 172.767 27.096 172.383 27.384C172.01 27.6613 171.823 28.056 171.823 28.568C171.823 29.016 171.957 29.3413 172.223 29.544C172.501 29.7467 172.847 29.848 173.263 29.848C173.935 29.848 174.49 29.6613 174.927 29.288C175.365 28.9147 175.583 28.3547 175.583 27.608V26.856L174.431 26.888ZM181.571 22.376V31H179.875V22.376H181.571ZM180.739 19.096C180.995 19.096 181.219 19.1707 181.411 19.32C181.603 19.4693 181.699 19.72 181.699 20.072C181.699 20.4133 181.603 20.664 181.411 20.824C181.219 20.9733 180.995 21.048 180.739 21.048C180.462 21.048 180.227 20.9733 180.035 20.824C179.854 20.664 179.763 20.4133 179.763 20.072C179.763 19.72 179.854 19.4693 180.035 19.32C180.227 19.1707 180.462 19.096 180.739 19.096ZM188.602 22.216C189.605 22.216 190.373 22.4667 190.906 22.968C191.44 23.4693 191.706 24.2747 191.706 25.384V31H190.026V25.624C190.026 24.952 189.882 24.4507 189.594 24.12C189.317 23.7787 188.869 23.608 188.25 23.608C187.376 23.608 186.768 23.8693 186.426 24.392C186.096 24.9147 185.93 25.6667 185.93 26.648V31H184.234V22.376H185.578L185.818 23.528H185.914C186.106 23.2293 186.341 22.984 186.618 22.792C186.896 22.6 187.205 22.456 187.546 22.36C187.888 22.264 188.24 22.216 188.602 22.216ZM202.773 22.216C203.807 22.216 204.639 22.5893 205.269 23.336C205.909 24.0827 206.229 25.1973 206.229 26.68C206.229 27.6507 206.085 28.472 205.797 29.144C205.509 29.816 205.103 30.3227 204.581 30.664C204.058 30.9947 203.45 31.16 202.757 31.16C202.319 31.16 201.935 31.1067 201.605 31C201.274 30.8827 200.991 30.7333 200.757 30.552C200.533 30.36 200.335 30.1573 200.165 29.944H200.053C200.085 30.136 200.111 30.3653 200.133 30.632C200.154 30.888 200.165 31.1173 200.165 31.32V34.84H198.469V22.376H199.845L200.085 23.528H200.165C200.335 23.2933 200.538 23.0747 200.773 22.872C201.007 22.6693 201.29 22.5093 201.621 22.392C201.951 22.2747 202.335 22.216 202.773 22.216ZM202.373 23.608C201.839 23.608 201.413 23.7147 201.093 23.928C200.773 24.1307 200.538 24.44 200.389 24.856C200.25 25.2613 200.175 25.7787 200.165 26.408V26.664C200.165 27.3253 200.234 27.8907 200.373 28.36C200.511 28.8187 200.741 29.1707 201.061 29.416C201.391 29.6507 201.839 29.768 202.405 29.768C202.885 29.768 203.274 29.64 203.573 29.384C203.882 29.1173 204.111 28.7493 204.261 28.28C204.41 27.8107 204.485 27.2667 204.485 26.648C204.485 25.7093 204.314 24.968 203.973 24.424C203.631 23.88 203.098 23.608 202.373 23.608ZM211.735 22.216C212.823 22.216 213.633 22.456 214.167 22.936C214.7 23.4053 214.967 24.1467 214.967 25.16V31H213.767L213.431 29.8H213.367C213.121 30.1093 212.865 30.3653 212.599 30.568C212.343 30.7707 212.044 30.92 211.703 31.016C211.372 31.112 210.967 31.16 210.487 31.16C209.975 31.16 209.511 31.0693 209.095 30.888C208.689 30.696 208.369 30.408 208.135 30.024C207.9 29.6293 207.783 29.1387 207.783 28.552C207.783 27.6773 208.113 27.0107 208.775 26.552C209.447 26.0933 210.465 25.8427 211.831 25.8L213.303 25.752V25.272C213.303 24.632 213.159 24.184 212.871 23.928C212.583 23.672 212.177 23.544 211.655 23.544C211.207 23.544 210.78 23.608 210.375 23.736C209.969 23.864 209.585 24.0187 209.223 24.2L208.679 22.968C209.084 22.7547 209.548 22.5787 210.071 22.44C210.604 22.2907 211.159 22.216 211.735 22.216ZM212.135 26.888C211.153 26.9307 210.471 27.096 210.087 27.384C209.713 27.6613 209.527 28.056 209.527 28.568C209.527 29.016 209.66 29.3413 209.927 29.544C210.204 29.7467 210.551 29.848 210.967 29.848C211.639 29.848 212.193 29.6613 212.631 29.288C213.068 28.9147 213.287 28.3547 213.287 27.608V26.856L212.135 26.888ZM220.554 22.216C221.109 22.216 221.61 22.3227 222.058 22.536C222.506 22.7493 222.885 23.0747 223.194 23.512H223.274L223.466 22.376H224.842V31.112C224.842 31.9227 224.698 32.6053 224.41 33.16C224.122 33.7147 223.679 34.1307 223.082 34.408C222.495 34.696 221.754 34.84 220.858 34.84C220.239 34.84 219.669 34.7973 219.146 34.712C218.623 34.6267 218.143 34.4933 217.706 34.312V32.824C218.015 32.9733 218.341 33.096 218.682 33.192C219.023 33.2987 219.386 33.3733 219.77 33.416C220.154 33.4693 220.549 33.496 220.954 33.496C221.658 33.496 222.202 33.2933 222.586 32.888C222.97 32.4933 223.162 31.9333 223.162 31.208V30.92C223.162 30.7813 223.167 30.6 223.178 30.376C223.189 30.1413 223.199 29.9707 223.21 29.864H223.146C222.847 30.312 222.479 30.6427 222.042 30.856C221.615 31.0587 221.119 31.16 220.554 31.16C219.466 31.16 218.613 30.7707 217.994 29.992C217.386 29.2027 217.082 28.1093 217.082 26.712C217.082 25.7733 217.221 24.9733 217.498 24.312C217.775 23.64 218.17 23.1227 218.682 22.76C219.205 22.3973 219.829 22.216 220.554 22.216ZM220.906 23.624C220.458 23.624 220.079 23.7467 219.77 23.992C219.461 24.2267 219.226 24.5733 219.066 25.032C218.906 25.4907 218.826 26.056 218.826 26.728C218.826 27.7307 219.002 28.4933 219.354 29.016C219.717 29.5387 220.245 29.8 220.938 29.8C221.343 29.8 221.685 29.7467 221.962 29.64C222.25 29.5333 222.485 29.368 222.666 29.144C222.858 28.92 222.997 28.6373 223.082 28.296C223.178 27.944 223.226 27.5227 223.226 27.032V26.712C223.226 25.976 223.141 25.384 222.97 24.936C222.81 24.4773 222.559 24.1467 222.218 23.944C221.877 23.7307 221.439 23.624 220.906 23.624ZM230.892 22.216C231.649 22.216 232.3 22.376 232.844 22.696C233.388 23.0053 233.804 23.4533 234.092 24.04C234.391 24.6267 234.54 25.32 234.54 26.12V27.048H228.748C228.769 27.9333 228.999 28.6107 229.436 29.08C229.884 29.5493 230.508 29.784 231.308 29.784C231.863 29.784 232.353 29.736 232.78 29.64C233.217 29.5333 233.665 29.3787 234.124 29.176V30.584C233.697 30.776 233.26 30.92 232.812 31.016C232.375 31.112 231.852 31.16 231.244 31.16C230.412 31.16 229.676 30.9947 229.036 30.664C228.396 30.3333 227.895 29.8427 227.532 29.192C227.18 28.5307 227.004 27.72 227.004 26.76C227.004 25.7893 227.164 24.968 227.484 24.296C227.815 23.624 228.268 23.112 228.844 22.76C229.431 22.3973 230.113 22.216 230.892 22.216ZM230.892 23.528C230.284 23.528 229.793 23.7253 229.42 24.12C229.057 24.5147 228.844 25.0747 228.78 25.8H232.844C232.844 25.352 232.775 24.9573 232.636 24.616C232.497 24.2747 232.284 24.008 231.996 23.816C231.708 23.624 231.34 23.528 230.892 23.528Z" fill="white"/>
</svg>
