<svg width="1484" height="130" viewBox="0 0 1484 130" fill="none" xmlns="http://www.w3.org/2000/svg">
<rect width="1484" height="130" fill="url(#paint0_linear_101_180)"/>
<path d="M1411.73 60.7325C1412.09 60.3763 1412.54 60.1361 1413.04 60.0433C1413.53 59.9505 1414.05 60.0095 1414.51 60.2125L1439.51 71.2125C1439.98 71.423 1440.38 71.7751 1440.64 72.2202C1440.91 72.6653 1441.03 73.1815 1440.98 73.6977C1440.94 74.2138 1440.74 74.7045 1440.41 75.1021C1440.08 75.4997 1439.63 75.7846 1439.13 75.9175L1429.46 78.455L1426.92 88.135C1426.79 88.6362 1426.5 89.0839 1426.1 89.4162C1425.7 89.7484 1425.21 89.9487 1424.7 89.9893C1424.18 90.0299 1423.66 89.9089 1423.22 89.643C1422.77 89.3771 1422.42 88.9794 1422.21 88.505L1411.21 63.505C1411.01 63.0442 1410.95 62.5331 1411.04 62.0384C1411.14 61.5437 1411.38 61.0886 1411.73 60.7325ZM1401.86 75.5975C1402.09 75.3587 1402.37 75.1683 1402.67 75.0372C1402.98 74.9062 1403.31 74.8373 1403.64 74.8344C1403.97 74.8315 1404.3 74.8947 1404.61 75.0204C1404.91 75.1461 1405.19 75.3318 1405.43 75.5665C1405.66 75.8012 1405.85 76.0804 1405.97 76.3876C1406.1 76.6949 1406.16 77.0241 1406.16 77.356C1406.16 77.688 1406.09 78.016 1405.96 78.321C1405.83 78.626 1405.64 78.9019 1405.4 79.1325L1400.1 84.435C1399.62 84.8904 1398.99 85.1424 1398.34 85.1367C1397.68 85.131 1397.05 84.8681 1396.59 84.4045C1396.13 83.941 1395.86 83.314 1395.86 82.6585C1395.85 82.003 1396.1 81.3715 1396.56 80.9L1401.86 75.5975ZM1398.51 62.4875C1399.18 62.4875 1399.81 62.7509 1400.28 63.2197C1400.75 63.6886 1401.01 64.3245 1401.01 64.9875C1401.01 65.6505 1400.75 66.2864 1400.28 66.7553C1399.81 67.2241 1399.18 67.4875 1398.51 67.4875H1391.01C1390.35 67.4875 1389.71 67.2241 1389.24 66.7553C1388.78 66.2864 1388.51 65.6505 1388.51 64.9875C1388.51 64.3245 1388.78 63.6886 1389.24 63.2197C1389.71 62.7509 1390.35 62.4875 1391.01 62.4875H1398.51ZM1396.56 45.5625C1397.03 45.0938 1397.66 44.8305 1398.33 44.8305C1398.99 44.8305 1399.63 45.0938 1400.1 45.5625L1405.4 50.8675C1405.84 51.3411 1406.08 51.969 1406.07 52.6182C1406.06 53.2674 1405.8 53.887 1405.34 54.346C1404.88 54.8049 1404.26 55.0672 1403.61 55.0773C1402.96 55.0874 1402.34 54.8445 1401.86 54.4L1396.56 49.1C1396.09 48.6312 1395.83 47.9954 1395.83 47.3325C1395.83 46.6696 1396.09 46.0313 1396.56 45.5625ZM1431.92 45.55C1432.14 45.3058 1432.42 45.1102 1432.73 44.9748C1433.03 44.8393 1433.36 44.7669 1433.7 44.7617C1434.03 44.7565 1434.37 44.8186 1434.68 44.9445C1434.99 45.0703 1435.27 45.2573 1435.51 45.4942C1435.74 45.7312 1435.93 46.0133 1436.06 46.3239C1436.18 46.6344 1436.24 46.967 1436.24 47.302C1436.23 47.6369 1436.16 47.9673 1436.02 48.2736C1435.89 48.5799 1435.69 48.8559 1435.45 49.085L1430.15 54.385C1429.68 54.8407 1429.05 55.0932 1428.39 55.088C1427.73 55.0827 1427.11 54.8202 1426.64 54.357C1426.18 53.8939 1425.92 53.267 1425.91 52.6115C1425.9 51.956 1426.16 51.3243 1426.61 50.8525L1431.92 45.55ZM1413.5 47.5V40C1413.5 39.337 1413.76 38.7011 1414.23 38.2322C1414.7 37.7634 1415.34 37.5 1416 37.5C1416.66 37.5 1417.3 37.7634 1417.77 38.2322C1418.24 38.7011 1418.5 39.337 1418.5 40V47.5C1418.5 48.163 1418.24 48.7989 1417.77 49.2678C1417.3 49.7366 1416.66 50 1416 50C1415.34 50 1414.7 49.7366 1414.23 49.2678C1413.76 48.7989 1413.5 48.163 1413.5 47.5Z" fill="white"/>
<path d="M39.704 25.576C40.6533 25.576 41.432 25.6987 42.04 25.944C42.6587 26.1787 43.1173 26.536 43.416 27.016C43.7147 27.496 43.864 28.0987 43.864 28.824C43.864 29.432 43.752 29.9387 43.528 30.344C43.304 30.7493 43.016 31.0747 42.664 31.32C42.3227 31.5547 41.96 31.7413 41.576 31.88L44.712 37H43.032L40.264 32.28H37.992V37H36.552V25.576H39.704ZM39.624 26.824H37.992V31.064H39.704C40.3227 31.064 40.8293 30.984 41.224 30.824C41.6187 30.6533 41.9067 30.408 42.088 30.088C42.28 29.768 42.376 29.368 42.376 28.888C42.376 28.3867 42.2747 27.9867 42.072 27.688C41.88 27.3893 41.5813 27.1707 41.176 27.032C40.7707 26.8933 40.2533 26.824 39.624 26.824ZM49.6251 28.264C50.3611 28.264 50.9905 28.424 51.5131 28.744C52.0465 29.064 52.4518 29.5173 52.7291 30.104C53.0171 30.68 53.1611 31.3573 53.1611 32.136V32.984H47.2891C47.3105 33.9547 47.5558 34.696 48.0251 35.208C48.5051 35.7093 49.1718 35.96 50.0251 35.96C50.5691 35.96 51.0491 35.912 51.4651 35.816C51.8918 35.7093 52.3291 35.56 52.7771 35.368V36.6C52.3398 36.792 51.9078 36.9307 51.4811 37.016C51.0545 37.112 50.5478 37.16 49.9611 37.16C49.1505 37.16 48.4305 36.9947 47.8011 36.664C47.1825 36.3333 46.6971 35.8427 46.3451 35.192C46.0038 34.5307 45.8331 33.7253 45.8331 32.776C45.8331 31.8373 45.9878 31.032 46.2971 30.36C46.6171 29.688 47.0598 29.1707 47.6251 28.808C48.2011 28.4453 48.8678 28.264 49.6251 28.264ZM49.6091 29.416C48.9371 29.416 48.4038 29.6347 48.0091 30.072C47.6251 30.4987 47.3958 31.096 47.3211 31.864H51.6891C51.6891 31.3733 51.6145 30.9467 51.4651 30.584C51.3158 30.2213 51.0865 29.9387 50.7771 29.736C50.4785 29.5227 50.0891 29.416 49.6091 29.416ZM56.7524 37H55.3444V24.84H56.7524V37ZM62.7814 28.264C63.5174 28.264 64.1467 28.424 64.6694 28.744C65.2027 29.064 65.608 29.5173 65.8854 30.104C66.1734 30.68 66.3174 31.3573 66.3174 32.136V32.984H60.4454C60.4667 33.9547 60.712 34.696 61.1814 35.208C61.6614 35.7093 62.328 35.96 63.1814 35.96C63.7254 35.96 64.2054 35.912 64.6214 35.816C65.048 35.7093 65.4854 35.56 65.9334 35.368V36.6C65.496 36.792 65.064 36.9307 64.6374 37.016C64.2107 37.112 63.704 37.16 63.1174 37.16C62.3067 37.16 61.5867 36.9947 60.9574 36.664C60.3387 36.3333 59.8534 35.8427 59.5014 35.192C59.16 34.5307 58.9894 33.7253 58.9894 32.776C58.9894 31.8373 59.144 31.032 59.4534 30.36C59.7734 29.688 60.216 29.1707 60.7814 28.808C61.3574 28.4453 62.024 28.264 62.7814 28.264ZM62.7654 29.416C62.0934 29.416 61.56 29.6347 61.1654 30.072C60.7814 30.4987 60.552 31.096 60.4774 31.864H64.8454C64.8454 31.3733 64.7707 30.9467 64.6214 30.584C64.472 30.2213 64.2427 29.9387 63.9334 29.736C63.6347 29.5227 63.2454 29.416 62.7654 29.416ZM70.0761 37L66.8281 28.424H68.3321L70.1561 33.48C70.2415 33.7147 70.3321 33.976 70.4281 34.264C70.5241 34.552 70.6095 34.8293 70.6841 35.096C70.7588 35.352 70.8121 35.5707 70.8441 35.752H70.9081C70.9508 35.5707 71.0095 35.3467 71.0841 35.08C71.1695 34.8133 71.2601 34.536 71.3561 34.248C71.4628 33.96 71.5535 33.704 71.6281 33.48L73.4521 28.424H74.9561L71.6921 37H70.0761ZM79.5611 28.28C80.6065 28.28 81.3798 28.5093 81.8811 28.968C82.3825 29.4267 82.6331 30.1573 82.6331 31.16V37H81.6091L81.3371 35.784H81.2731C81.0278 36.0933 80.7718 36.3547 80.5051 36.568C80.2491 36.7707 79.9505 36.92 79.6091 37.016C79.2785 37.112 78.8731 37.16 78.3931 37.16C77.8811 37.16 77.4171 37.0693 77.0011 36.888C76.5958 36.7067 76.2758 36.4293 76.0411 36.056C75.8065 35.672 75.6891 35.192 75.6891 34.616C75.6891 33.7627 76.0251 33.1067 76.6971 32.648C77.3691 32.1787 78.4038 31.9227 79.8011 31.88L81.2571 31.832V31.32C81.2571 30.6053 81.1025 30.1093 80.7931 29.832C80.4838 29.5547 80.0465 29.416 79.4811 29.416C79.0331 29.416 78.6065 29.4853 78.2011 29.624C77.7958 29.752 77.4171 29.9013 77.0651 30.072L76.6331 29.016C77.0065 28.8133 77.4491 28.6427 77.9611 28.504C78.4731 28.3547 79.0065 28.28 79.5611 28.28ZM79.9771 32.856C78.9105 32.8987 78.1691 33.0693 77.7531 33.368C77.3478 33.6667 77.1451 34.088 77.1451 34.632C77.1451 35.112 77.2891 35.464 77.5771 35.688C77.8758 35.912 78.2545 36.024 78.7131 36.024C79.4385 36.024 80.0411 35.8267 80.5211 35.432C81.0011 35.0267 81.2411 34.408 81.2411 33.576V32.808L79.9771 32.856ZM89.4099 28.264C90.4339 28.264 91.2072 28.5147 91.7299 29.016C92.2525 29.5067 92.5139 30.3067 92.5139 31.416V37H91.1219V31.512C91.1219 30.8187 90.9672 30.3013 90.6579 29.96C90.3485 29.6187 89.8632 29.448 89.2019 29.448C88.2525 29.448 87.5965 29.7147 87.2339 30.248C86.8712 30.7813 86.6899 31.5493 86.6899 32.552V37H85.2819V28.424H86.4179L86.6259 29.592H86.7059C86.8979 29.2933 87.1325 29.048 87.4099 28.856C87.6979 28.6533 88.0125 28.504 88.3539 28.408C88.6952 28.312 89.0472 28.264 89.4099 28.264ZM98.0365 36.008C98.2498 36.008 98.4685 35.992 98.6925 35.96C98.9165 35.9173 99.0978 35.8747 99.2365 35.832V36.904C99.0872 36.9787 98.8738 37.0373 98.5965 37.08C98.3192 37.1333 98.0525 37.16 97.7965 37.16C97.3485 37.16 96.9325 37.0853 96.5485 36.936C96.1752 36.776 95.8712 36.504 95.6365 36.12C95.4018 35.736 95.2845 35.1973 95.2845 34.504V29.512H94.0685V28.84L95.3005 28.28L95.8605 26.456H96.6925V28.424H99.1725V29.512H96.6925V34.472C96.6925 34.9947 96.8152 35.384 97.0605 35.64C97.3165 35.8853 97.6418 36.008 98.0365 36.008ZM108.358 28.28C109.403 28.28 110.177 28.5093 110.678 28.968C111.179 29.4267 111.43 30.1573 111.43 31.16V37H110.406L110.134 35.784H110.07C109.825 36.0933 109.569 36.3547 109.302 36.568C109.046 36.7707 108.747 36.92 108.406 37.016C108.075 37.112 107.67 37.16 107.19 37.16C106.678 37.16 106.214 37.0693 105.798 36.888C105.393 36.7067 105.073 36.4293 104.838 36.056C104.603 35.672 104.486 35.192 104.486 34.616C104.486 33.7627 104.822 33.1067 105.494 32.648C106.166 32.1787 107.201 31.9227 108.598 31.88L110.054 31.832V31.32C110.054 30.6053 109.899 30.1093 109.59 29.832C109.281 29.5547 108.843 29.416 108.278 29.416C107.83 29.416 107.403 29.4853 106.998 29.624C106.593 29.752 106.214 29.9013 105.862 30.072L105.43 29.016C105.803 28.8133 106.246 28.6427 106.758 28.504C107.27 28.3547 107.803 28.28 108.358 28.28ZM108.774 32.856C107.707 32.8987 106.966 33.0693 106.55 33.368C106.145 33.6667 105.942 34.088 105.942 34.632C105.942 35.112 106.086 35.464 106.374 35.688C106.673 35.912 107.051 36.024 107.51 36.024C108.235 36.024 108.838 35.8267 109.318 35.432C109.798 35.0267 110.038 34.408 110.038 33.576V32.808L108.774 32.856ZM118.079 28.264C118.239 28.264 118.409 28.2747 118.591 28.296C118.783 28.3067 118.948 28.328 119.087 28.36L118.911 29.656C118.772 29.624 118.617 29.5973 118.447 29.576C118.287 29.5547 118.132 29.544 117.983 29.544C117.652 29.544 117.337 29.6133 117.039 29.752C116.74 29.8907 116.473 30.088 116.239 30.344C116.004 30.5893 115.817 30.888 115.679 31.24C115.551 31.592 115.487 31.9867 115.487 32.424V37H114.079V28.424H115.231L115.391 29.992H115.455C115.636 29.672 115.855 29.384 116.111 29.128C116.367 28.8613 116.66 28.6533 116.991 28.504C117.321 28.344 117.684 28.264 118.079 28.264ZM123.552 36.008C123.765 36.008 123.984 35.992 124.208 35.96C124.432 35.9173 124.613 35.8747 124.752 35.832V36.904C124.603 36.9787 124.389 37.0373 124.112 37.08C123.835 37.1333 123.568 37.16 123.312 37.16C122.864 37.16 122.448 37.0853 122.064 36.936C121.691 36.776 121.387 36.504 121.152 36.12C120.917 35.736 120.8 35.1973 120.8 34.504V29.512H119.584V28.84L120.816 28.28L121.376 26.456H122.208V28.424H124.688V29.512H122.208V34.472C122.208 34.9947 122.331 35.384 122.576 35.64C122.832 35.8853 123.157 36.008 123.552 36.008ZM127.877 28.424V37H126.469V28.424H127.877ZM127.189 25.208C127.403 25.208 127.589 25.2827 127.749 25.432C127.92 25.5707 128.005 25.7947 128.005 26.104C128.005 26.4027 127.92 26.6267 127.749 26.776C127.589 26.9253 127.403 27 127.189 27C126.955 27 126.757 26.9253 126.597 26.776C126.437 26.6267 126.357 26.4027 126.357 26.104C126.357 25.7947 126.437 25.5707 126.597 25.432C126.757 25.2827 126.955 25.208 127.189 25.208ZM134.034 37.16C133.277 37.16 132.6 37.0053 132.002 36.696C131.416 36.3867 130.952 35.9067 130.61 35.256C130.28 34.6053 130.114 33.7733 130.114 32.76C130.114 31.704 130.29 30.8453 130.642 30.184C130.994 29.5227 131.469 29.0373 132.066 28.728C132.674 28.4187 133.362 28.264 134.13 28.264C134.568 28.264 134.989 28.312 135.394 28.408C135.8 28.4933 136.13 28.6 136.386 28.728L135.954 29.896C135.698 29.8 135.4 29.7093 135.058 29.624C134.717 29.5387 134.397 29.496 134.098 29.496C133.522 29.496 133.048 29.6187 132.674 29.864C132.301 30.1093 132.024 30.472 131.842 30.952C131.661 31.432 131.57 32.0293 131.57 32.744C131.57 33.4267 131.661 34.008 131.842 34.488C132.024 34.968 132.296 35.3307 132.658 35.576C133.021 35.8213 133.474 35.944 134.018 35.944C134.488 35.944 134.898 35.896 135.25 35.8C135.613 35.704 135.944 35.5867 136.242 35.448V36.696C135.954 36.8453 135.634 36.9573 135.282 37.032C134.941 37.1173 134.525 37.16 134.034 37.16ZM139.69 37H138.282V24.84H139.69V37ZM145.719 28.264C146.455 28.264 147.084 28.424 147.607 28.744C148.14 29.064 148.546 29.5173 148.823 30.104C149.111 30.68 149.255 31.3573 149.255 32.136V32.984H143.383C143.404 33.9547 143.65 34.696 144.119 35.208C144.599 35.7093 145.266 35.96 146.119 35.96C146.663 35.96 147.143 35.912 147.559 35.816C147.986 35.7093 148.423 35.56 148.871 35.368V36.6C148.434 36.792 148.002 36.9307 147.575 37.016C147.148 37.112 146.642 37.16 146.055 37.16C145.244 37.16 144.524 36.9947 143.895 36.664C143.276 36.3333 142.791 35.8427 142.439 35.192C142.098 34.5307 141.927 33.7253 141.927 32.776C141.927 31.8373 142.082 31.032 142.391 30.36C142.711 29.688 143.154 29.1707 143.719 28.808C144.295 28.4453 144.962 28.264 145.719 28.264ZM145.703 29.416C145.031 29.416 144.498 29.6347 144.103 30.072C143.719 30.4987 143.49 31.096 143.415 31.864H147.783C147.783 31.3733 147.708 30.9467 147.559 30.584C147.41 30.2213 147.18 29.9387 146.871 29.736C146.572 29.5227 146.183 29.416 145.703 29.416Z" fill="white"/>
<path d="M35 52H155" stroke="#2A2C38" stroke-width="2" stroke-linecap="round"/>
<path d="M50.968 96H37.976V73.152H50.968V76.576H42.072V82.4H50.392V85.824H42.072V92.544H50.968V96ZM62.4438 96.32C60.8011 96.32 59.3718 96.0107 58.1558 95.392C56.9611 94.752 56.0331 93.7813 55.3718 92.48C54.7318 91.1573 54.4118 89.472 54.4118 87.424C54.4118 85.2907 54.7638 83.5627 55.4678 82.24C56.1931 80.896 57.1851 79.9147 58.4438 79.296C59.7024 78.656 61.1424 78.336 62.7638 78.336C63.8518 78.336 64.8224 78.4427 65.6758 78.656C66.5291 78.8693 67.2544 79.1253 67.8518 79.424L66.6678 82.592C66.0064 82.336 65.3451 82.1227 64.6838 81.952C64.0224 81.76 63.3824 81.664 62.7638 81.664C61.8038 81.664 61.0038 81.8773 60.3638 82.304C59.7451 82.7307 59.2864 83.3707 58.9878 84.224C58.6891 85.056 58.5398 86.112 58.5398 87.392C58.5398 88.6293 58.6891 89.664 58.9878 90.496C59.3078 91.328 59.7771 91.9573 60.3958 92.384C61.0144 92.7893 61.7824 92.992 62.6998 92.992C63.6811 92.992 64.5451 92.8747 65.2918 92.64C66.0384 92.4053 66.7424 92.0853 67.4038 91.68V95.168C66.7424 95.5733 66.0278 95.8613 65.2598 96.032C64.5131 96.224 63.5744 96.32 62.4438 96.32ZM86.955 87.296C86.955 88.7467 86.763 90.0267 86.379 91.136C85.995 92.2453 85.4403 93.1947 84.715 93.984C84.011 94.752 83.1363 95.3387 82.091 95.744C81.067 96.128 79.9257 96.32 78.667 96.32C77.4723 96.32 76.3737 96.128 75.371 95.744C74.3683 95.3387 73.4937 94.752 72.747 93.984C72.0217 93.1947 71.4563 92.2453 71.051 91.136C70.6457 90.0267 70.443 88.7467 70.443 87.296C70.443 85.376 70.7737 83.7547 71.435 82.432C72.0963 81.088 73.0457 80.0747 74.283 79.392C75.5417 78.688 77.0243 78.336 78.731 78.336C80.3523 78.336 81.771 78.688 82.987 79.392C84.2243 80.0747 85.195 81.088 85.899 82.432C86.603 83.7547 86.955 85.376 86.955 87.296ZM74.571 87.296C74.571 88.512 74.7097 89.5573 74.987 90.432C75.2857 91.2853 75.7337 91.936 76.331 92.384C76.9497 92.832 77.739 93.056 78.699 93.056C79.6803 93.056 80.4697 92.832 81.067 92.384C81.6857 91.936 82.1337 91.2853 82.411 90.432C82.6883 89.5573 82.827 88.512 82.827 87.296C82.827 86.0587 82.6777 85.024 82.379 84.192C82.1017 83.3387 81.6537 82.6987 81.035 82.272C80.4377 81.824 79.659 81.6 78.699 81.6C77.2483 81.6 76.1923 82.0907 75.531 83.072C74.891 84.0533 74.571 85.4613 74.571 87.296ZM100.403 78.336C102.345 78.336 103.859 78.8373 104.947 79.84C106.057 80.8427 106.611 82.464 106.611 84.704V96H102.579V85.504C102.579 84.2027 102.323 83.232 101.811 82.592C101.299 81.9307 100.489 81.6 99.3793 81.6C97.7579 81.6 96.6486 82.112 96.0513 83.136C95.4539 84.1387 95.1553 85.6 95.1553 87.52V96H91.1233V78.656H94.2273L94.8033 80.928H95.0273C95.4113 80.3307 95.8806 79.84 96.4353 79.456C96.9899 79.072 97.6086 78.7947 98.2913 78.624C98.9739 78.432 99.6779 78.336 100.403 78.336ZM127.142 87.296C127.142 88.7467 126.951 90.0267 126.567 91.136C126.183 92.2453 125.628 93.1947 124.903 93.984C124.199 94.752 123.324 95.3387 122.279 95.744C121.255 96.128 120.113 96.32 118.855 96.32C117.66 96.32 116.561 96.128 115.559 95.744C114.556 95.3387 113.681 94.752 112.935 93.984C112.209 93.1947 111.644 92.2453 111.239 91.136C110.833 90.0267 110.631 88.7467 110.631 87.296C110.631 85.376 110.961 83.7547 111.623 82.432C112.284 81.088 113.233 80.0747 114.471 79.392C115.729 78.688 117.212 78.336 118.919 78.336C120.54 78.336 121.959 78.688 123.175 79.392C124.412 80.0747 125.383 81.088 126.087 82.432C126.791 83.7547 127.142 85.376 127.142 87.296ZM114.759 87.296C114.759 88.512 114.897 89.5573 115.175 90.432C115.473 91.2853 115.921 91.936 116.519 92.384C117.137 92.832 117.927 93.056 118.887 93.056C119.868 93.056 120.657 92.832 121.255 92.384C121.873 91.936 122.321 91.2853 122.599 90.432C122.876 89.5573 123.015 88.512 123.015 87.296C123.015 86.0587 122.865 85.024 122.567 84.192C122.289 83.3387 121.841 82.6987 121.223 82.272C120.625 81.824 119.847 81.6 118.887 81.6C117.436 81.6 116.38 82.0907 115.719 83.072C115.079 84.0533 114.759 85.4613 114.759 87.296ZM151.183 78.336C153.145 78.336 154.617 78.8373 155.599 79.84C156.601 80.8427 157.103 82.464 157.103 84.704V96H153.071V85.472C153.071 84.192 152.836 83.232 152.367 82.592C151.897 81.9307 151.151 81.6 150.127 81.6C148.719 81.6 147.716 82.0587 147.119 82.976C146.521 83.8933 146.223 85.2267 146.223 86.976V96H142.191V85.472C142.191 84.6187 142.084 83.904 141.871 83.328C141.657 82.752 141.327 82.3253 140.879 82.048C140.452 81.7493 139.897 81.6 139.215 81.6C138.255 81.6 137.487 81.8347 136.911 82.304C136.335 82.752 135.929 83.4133 135.695 84.288C135.46 85.1627 135.343 86.24 135.343 87.52V96H131.311V78.656H134.415L134.991 80.928H135.215C135.577 80.3307 136.015 79.84 136.527 79.456C137.06 79.072 137.647 78.7947 138.287 78.624C138.948 78.432 139.609 78.336 140.271 78.336C141.572 78.336 142.671 78.56 143.567 79.008C144.463 79.4347 145.135 80.1067 145.583 81.024H145.903C146.436 80.0853 147.183 79.4027 148.143 78.976C149.124 78.5493 150.137 78.336 151.183 78.336ZM159.562 78.656H163.947L167.403 88.448C167.552 88.8747 167.68 89.2907 167.786 89.696C167.915 90.08 168.021 90.4747 168.107 90.88C168.192 91.2853 168.256 91.6907 168.299 92.096H168.427C168.512 91.5627 168.64 90.976 168.811 90.336C169.003 89.696 169.195 89.0667 169.387 88.448L172.715 78.656H177.067L169.675 98.304C169.248 99.4347 168.704 100.405 168.043 101.216C167.403 102.027 166.635 102.635 165.739 103.04C164.864 103.467 163.872 103.68 162.763 103.68C162.251 103.68 161.792 103.648 161.387 103.584C161.003 103.541 160.661 103.488 160.363 103.424V100.224C160.597 100.267 160.875 100.309 161.195 100.352C161.536 100.395 161.888 100.416 162.251 100.416C162.912 100.416 163.477 100.277 163.947 100C164.437 99.744 164.843 99.3813 165.163 98.912C165.504 98.4427 165.781 97.92 165.995 97.344L166.507 95.936L159.562 78.656ZM203.455 87.296C203.455 88.7467 203.263 90.0267 202.879 91.136C202.495 92.2453 201.94 93.1947 201.215 93.984C200.511 94.752 199.636 95.3387 198.591 95.744C197.567 96.128 196.426 96.32 195.167 96.32C193.972 96.32 192.874 96.128 191.871 95.744C190.868 95.3387 189.994 94.752 189.247 93.984C188.522 93.1947 187.956 92.2453 187.551 91.136C187.146 90.0267 186.943 88.7467 186.943 87.296C186.943 85.376 187.274 83.7547 187.935 82.432C188.596 81.088 189.546 80.0747 190.783 79.392C192.042 78.688 193.524 78.336 195.231 78.336C196.852 78.336 198.271 78.688 199.487 79.392C200.724 80.0747 201.695 81.088 202.399 82.432C203.103 83.7547 203.455 85.376 203.455 87.296ZM191.071 87.296C191.071 88.512 191.21 89.5573 191.487 90.432C191.786 91.2853 192.234 91.936 192.831 92.384C193.45 92.832 194.239 93.056 195.199 93.056C196.18 93.056 196.97 92.832 197.567 92.384C198.186 91.936 198.634 91.2853 198.911 90.432C199.188 89.5573 199.327 88.512 199.327 87.296C199.327 86.0587 199.178 85.024 198.879 84.192C198.602 83.3387 198.154 82.6987 197.535 82.272C196.938 81.824 196.159 81.6 195.199 81.6C193.748 81.6 192.692 82.0907 192.031 83.072C191.391 84.0533 191.071 85.4613 191.071 87.296ZM216.615 81.696H212.423V96H208.391V81.696H205.607V79.776L208.391 78.624V77.44C208.391 75.9467 208.626 74.7733 209.095 73.92C209.565 73.0667 210.247 72.4587 211.143 72.096C212.039 71.712 213.095 71.52 214.311 71.52C215.165 71.52 215.933 71.5947 216.615 71.744C217.298 71.872 217.863 72.0213 218.311 72.192L217.287 75.2C216.925 75.0933 216.519 74.9973 216.071 74.912C215.645 74.8053 215.175 74.752 214.663 74.752C213.895 74.752 213.33 74.9973 212.967 75.488C212.605 75.9787 212.423 76.6613 212.423 77.536V78.656H216.615V81.696ZM241.475 89.76C241.475 91.104 241.144 92.2667 240.483 93.248C239.821 94.2293 238.861 94.9867 237.603 95.52C236.365 96.0533 234.883 96.32 233.155 96.32C232.323 96.32 231.523 96.2667 230.755 96.16C230.008 96.0747 229.293 95.936 228.611 95.744C227.949 95.552 227.331 95.3173 226.755 95.04V91.2C227.715 91.6267 228.771 92.0213 229.923 92.384C231.075 92.7253 232.248 92.896 233.443 92.896C234.36 92.896 235.107 92.7787 235.683 92.544C236.28 92.288 236.717 91.9467 236.995 91.52C237.272 91.072 237.411 90.56 237.411 89.984C237.411 89.344 237.229 88.8 236.867 88.352C236.504 87.904 235.971 87.488 235.267 87.104C234.563 86.72 233.688 86.3147 232.643 85.888C231.939 85.5893 231.245 85.2587 230.563 84.896C229.901 84.512 229.304 84.0533 228.771 83.52C228.237 82.9867 227.811 82.3573 227.491 81.632C227.171 80.9067 227.011 80.0533 227.011 79.072C227.011 77.7707 227.32 76.6507 227.939 75.712C228.579 74.7733 229.464 74.0587 230.595 73.568C231.747 73.0773 233.08 72.832 234.595 72.832C235.811 72.832 236.952 72.96 238.019 73.216C239.085 73.472 240.141 73.8347 241.187 74.304L239.875 77.6C238.936 77.1947 238.029 76.8747 237.155 76.64C236.28 76.4053 235.384 76.288 234.467 76.288C233.741 76.288 233.123 76.4053 232.611 76.64C232.099 76.8533 231.715 77.1627 231.459 77.568C231.203 77.9733 231.075 78.4427 231.075 78.976C231.075 79.5947 231.235 80.1173 231.555 80.544C231.875 80.9707 232.365 81.376 233.027 81.76C233.709 82.1227 234.584 82.5387 235.651 83.008C236.888 83.5413 237.933 84.096 238.787 84.672C239.64 85.248 240.301 85.9413 240.771 86.752C241.24 87.5627 241.475 88.5653 241.475 89.76ZM249.405 83.232C249.405 83.7867 249.383 84.3733 249.341 84.992C249.298 85.5893 249.255 86.176 249.213 86.752H249.309C249.479 86.496 249.682 86.2187 249.917 85.92C250.151 85.6 250.386 85.2907 250.621 84.992C250.877 84.672 251.122 84.384 251.357 84.128L256.477 78.656H261.053L254.109 86.144L261.501 96H256.797L251.421 88.576L249.405 90.24V96H245.405V71.68H249.405V83.232ZM271.193 78.336C272.75 78.336 274.084 78.656 275.193 79.296C276.324 79.9147 277.198 80.8107 277.817 81.984C278.436 83.136 278.745 84.544 278.745 86.208V88.256H267.289C267.332 89.8347 267.769 91.0613 268.601 91.936C269.433 92.7893 270.585 93.216 272.057 93.216C273.188 93.216 274.19 93.1093 275.065 92.896C275.961 92.6613 276.878 92.3307 277.817 91.904V95.136C276.964 95.5413 276.078 95.84 275.161 96.032C274.244 96.224 273.145 96.32 271.865 96.32C270.18 96.32 268.676 96 267.353 95.36C266.052 94.6987 265.028 93.7067 264.281 92.384C263.556 91.0613 263.193 89.4187 263.193 87.456C263.193 85.472 263.524 83.808 264.185 82.464C264.868 81.0987 265.806 80.0747 267.001 79.392C268.196 78.688 269.593 78.336 271.193 78.336ZM271.193 81.312C270.126 81.312 269.252 81.664 268.569 82.368C267.908 83.0507 267.513 84.0747 267.385 85.44H274.841C274.841 84.6293 274.702 83.9147 274.425 83.296C274.169 82.6773 273.774 82.1973 273.241 81.856C272.708 81.4933 272.025 81.312 271.193 81.312ZM286.843 96H282.811V71.68H286.843V96ZM296.03 96H291.998V71.68H296.03V96ZM308.162 78.336C309.719 78.336 311.052 78.656 312.162 79.296C313.292 79.9147 314.167 80.8107 314.786 81.984C315.404 83.136 315.714 84.544 315.714 86.208V88.256H304.258C304.3 89.8347 304.738 91.0613 305.57 91.936C306.402 92.7893 307.554 93.216 309.026 93.216C310.156 93.216 311.159 93.1093 312.034 92.896C312.93 92.6613 313.847 92.3307 314.786 91.904V95.136C313.932 95.5413 313.047 95.84 312.13 96.032C311.212 96.224 310.114 96.32 308.834 96.32C307.148 96.32 305.644 96 304.322 95.36C303.02 94.6987 301.996 93.7067 301.25 92.384C300.524 91.0613 300.162 89.4187 300.162 87.456C300.162 85.472 300.492 83.808 301.154 82.464C301.836 81.0987 302.775 80.0747 303.97 79.392C305.164 78.688 306.562 78.336 308.162 78.336ZM308.162 81.312C307.095 81.312 306.22 81.664 305.538 82.368C304.876 83.0507 304.482 84.0747 304.354 85.44H311.81C311.81 84.6293 311.671 83.9147 311.394 83.296C311.138 82.6773 310.743 82.1973 310.21 81.856C309.676 81.4933 308.994 81.312 308.162 81.312ZM328.772 81.696H324.58V96H320.548V81.696H317.764V79.776L320.548 78.624V77.44C320.548 75.9467 320.782 74.7733 321.252 73.92C321.721 73.0667 322.404 72.4587 323.3 72.096C324.196 71.712 325.252 71.52 326.468 71.52C327.321 71.52 328.089 71.5947 328.772 71.744C329.454 71.872 330.02 72.0213 330.468 72.192L329.444 75.2C329.081 75.0933 328.676 74.9973 328.228 74.912C327.801 74.8053 327.332 74.752 326.82 74.752C326.052 74.752 325.486 74.9973 325.124 75.488C324.761 75.9787 324.58 76.6613 324.58 77.536V78.656H328.772V81.696ZM338.375 93.088C338.887 93.088 339.377 93.0453 339.847 92.96C340.316 92.8533 340.753 92.736 341.159 92.608V95.616C340.732 95.808 340.177 95.968 339.495 96.096C338.812 96.2453 338.097 96.32 337.351 96.32C336.369 96.32 335.473 96.16 334.663 95.84C333.873 95.4987 333.233 94.9227 332.743 94.112C332.273 93.3013 332.039 92.1707 332.039 90.72V81.696H329.703V79.936L332.263 78.528L333.543 74.848H336.071V78.656H340.999V81.696H336.071V90.688C336.071 91.4987 336.284 92.1067 336.711 92.512C337.137 92.896 337.692 93.088 338.375 93.088ZM351.631 78.336C353.188 78.336 354.521 78.656 355.631 79.296C356.761 79.9147 357.636 80.8107 358.255 81.984C358.873 83.136 359.183 84.544 359.183 86.208V88.256H347.727C347.769 89.8347 348.207 91.0613 349.039 91.936C349.871 92.7893 351.023 93.216 352.495 93.216C353.625 93.216 354.628 93.1093 355.503 92.896C356.399 92.6613 357.316 92.3307 358.255 91.904V95.136C357.401 95.5413 356.516 95.84 355.599 96.032C354.681 96.224 353.583 96.32 352.303 96.32C350.617 96.32 349.113 96 347.791 95.36C346.489 94.6987 345.465 93.7067 344.719 92.384C343.993 91.0613 343.631 89.4187 343.631 87.456C343.631 85.472 343.961 83.808 344.623 82.464C345.305 81.0987 346.244 80.0747 347.439 79.392C348.633 78.688 350.031 78.336 351.631 78.336ZM351.631 81.312C350.564 81.312 349.689 81.664 349.007 82.368C348.345 83.0507 347.951 84.0747 347.823 85.44H355.279C355.279 84.6293 355.14 83.9147 354.863 83.296C354.607 82.6773 354.212 82.1973 353.679 81.856C353.145 81.4933 352.463 81.312 351.631 81.312ZM367.28 96H363.248V71.68H367.28V96ZM376.468 96H372.436V71.68H376.468V96ZM388.535 78.336C390.775 78.336 392.471 78.8267 393.623 79.808C394.797 80.768 395.383 82.2827 395.383 84.352V96H392.535L391.735 93.6H391.607C391.117 94.2187 390.605 94.7413 390.071 95.168C389.559 95.5733 388.962 95.8613 388.279 96.032C387.618 96.224 386.807 96.32 385.847 96.32C384.823 96.32 383.895 96.128 383.063 95.744C382.253 95.36 381.613 94.7733 381.143 93.984C380.674 93.1733 380.439 92.16 380.439 90.944C380.439 89.152 381.09 87.808 382.391 86.912C383.714 85.9947 385.709 85.4933 388.375 85.408L391.383 85.312V84.448C391.383 83.3387 391.117 82.5493 390.583 82.08C390.05 81.6107 389.303 81.376 388.343 81.376C387.469 81.376 386.626 81.504 385.815 81.76C385.005 82.016 384.215 82.3147 383.447 82.656L382.167 79.84C383.021 79.392 383.991 79.0293 385.079 78.752C386.189 78.4747 387.341 78.336 388.535 78.336ZM389.271 87.872C387.501 87.936 386.274 88.2453 385.591 88.8C384.909 89.3333 384.567 90.0587 384.567 90.976C384.567 91.7867 384.813 92.3733 385.303 92.736C385.794 93.0987 386.423 93.28 387.191 93.28C388.365 93.28 389.357 92.9493 390.167 92.288C390.978 91.6053 391.383 90.6027 391.383 89.28V87.808L389.271 87.872Z" fill="white"/>
<defs>
<linearGradient id="paint0_linear_101_180" x1="1484" y1="65" x2="0" y2="65" gradientUnits="userSpaceOnUse">
<stop stop-color="#082A43"/>
<stop offset="1" stop-color="#0F4C7A"/>
</linearGradient>
</defs>
</svg>
