<svg width="1484" height="130" viewBox="0 0 1484 130" fill="none" xmlns="http://www.w3.org/2000/svg">
<rect width="1484" height="130" fill="url(#paint0_linear_101_155)"/>
<path d="M1411.73 60.7325C1412.09 60.3763 1412.54 60.1361 1413.04 60.0433C1413.53 59.9505 1414.05 60.0095 1414.51 60.2125L1439.51 71.2125C1439.98 71.423 1440.38 71.7751 1440.64 72.2202C1440.91 72.6653 1441.03 73.1815 1440.98 73.6977C1440.94 74.2138 1440.74 74.7045 1440.41 75.1021C1440.08 75.4997 1439.63 75.7846 1439.13 75.9175L1429.46 78.455L1426.92 88.135C1426.79 88.6362 1426.5 89.0839 1426.1 89.4162C1425.7 89.7484 1425.21 89.9487 1424.7 89.9893C1424.18 90.0299 1423.66 89.9089 1423.22 89.643C1422.77 89.3771 1422.42 88.9794 1422.21 88.505L1411.21 63.505C1411.01 63.0442 1410.95 62.5331 1411.04 62.0384C1411.14 61.5437 1411.38 61.0886 1411.73 60.7325ZM1401.86 75.5975C1402.09 75.3587 1402.37 75.1683 1402.67 75.0372C1402.98 74.9062 1403.31 74.8373 1403.64 74.8344C1403.97 74.8315 1404.3 74.8947 1404.61 75.0204C1404.91 75.1461 1405.19 75.3318 1405.43 75.5665C1405.66 75.8012 1405.85 76.0804 1405.97 76.3876C1406.1 76.6949 1406.16 77.0241 1406.16 77.356C1406.16 77.688 1406.09 78.016 1405.96 78.321C1405.83 78.626 1405.64 78.9019 1405.4 79.1325L1400.1 84.435C1399.62 84.8904 1398.99 85.1424 1398.34 85.1367C1397.68 85.131 1397.05 84.8681 1396.59 84.4045C1396.13 83.941 1395.86 83.314 1395.86 82.6585C1395.85 82.003 1396.1 81.3715 1396.56 80.9L1401.86 75.5975ZM1398.51 62.4875C1399.18 62.4875 1399.81 62.7509 1400.28 63.2197C1400.75 63.6886 1401.01 64.3245 1401.01 64.9875C1401.01 65.6505 1400.75 66.2864 1400.28 66.7553C1399.81 67.2241 1399.18 67.4875 1398.51 67.4875H1391.01C1390.35 67.4875 1389.71 67.2241 1389.24 66.7553C1388.78 66.2864 1388.51 65.6505 1388.51 64.9875C1388.51 64.3245 1388.78 63.6886 1389.24 63.2197C1389.71 62.7509 1390.35 62.4875 1391.01 62.4875H1398.51ZM1396.56 45.5625C1397.03 45.0938 1397.66 44.8305 1398.33 44.8305C1398.99 44.8305 1399.63 45.0938 1400.1 45.5625L1405.4 50.8675C1405.84 51.3411 1406.08 51.969 1406.07 52.6182C1406.06 53.2674 1405.8 53.887 1405.34 54.346C1404.88 54.8049 1404.26 55.0672 1403.61 55.0773C1402.96 55.0874 1402.34 54.8445 1401.86 54.4L1396.56 49.1C1396.09 48.6312 1395.83 47.9954 1395.83 47.3325C1395.83 46.6696 1396.09 46.0313 1396.56 45.5625ZM1431.92 45.55C1432.14 45.3058 1432.42 45.1102 1432.73 44.9748C1433.03 44.8393 1433.36 44.7669 1433.7 44.7617C1434.03 44.7565 1434.37 44.8186 1434.68 44.9445C1434.99 45.0703 1435.27 45.2573 1435.51 45.4942C1435.74 45.7312 1435.93 46.0133 1436.06 46.3239C1436.18 46.6344 1436.24 46.967 1436.24 47.302C1436.23 47.6369 1436.16 47.9673 1436.02 48.2736C1435.89 48.5799 1435.69 48.8559 1435.45 49.085L1430.15 54.385C1429.68 54.8407 1429.05 55.0932 1428.39 55.088C1427.73 55.0827 1427.11 54.8202 1426.64 54.357C1426.18 53.8939 1425.92 53.267 1425.91 52.6115C1425.9 51.956 1426.16 51.3243 1426.61 50.8525L1431.92 45.55ZM1413.5 47.5V40C1413.5 39.337 1413.76 38.7011 1414.23 38.2322C1414.7 37.7634 1415.34 37.5 1416 37.5C1416.66 37.5 1417.3 37.7634 1417.77 38.2322C1418.24 38.7011 1418.5 39.337 1418.5 40V47.5C1418.5 48.163 1418.24 48.7989 1417.77 49.2678C1417.3 49.7366 1416.66 50 1416 50C1415.34 50 1414.7 49.7366 1414.23 49.2678C1413.76 48.7989 1413.5 48.163 1413.5 47.5Z" fill="white"/>
<path d="M39.704 25.576C40.6533 25.576 41.432 25.6987 42.04 25.944C42.6587 26.1787 43.1173 26.536 43.416 27.016C43.7147 27.496 43.864 28.0987 43.864 28.824C43.864 29.432 43.752 29.9387 43.528 30.344C43.304 30.7493 43.016 31.0747 42.664 31.32C42.3227 31.5547 41.96 31.7413 41.576 31.88L44.712 37H43.032L40.264 32.28H37.992V37H36.552V25.576H39.704ZM39.624 26.824H37.992V31.064H39.704C40.3227 31.064 40.8293 30.984 41.224 30.824C41.6187 30.6533 41.9067 30.408 42.088 30.088C42.28 29.768 42.376 29.368 42.376 28.888C42.376 28.3867 42.2747 27.9867 42.072 27.688C41.88 27.3893 41.5813 27.1707 41.176 27.032C40.7707 26.8933 40.2533 26.824 39.624 26.824ZM49.6251 28.264C50.3611 28.264 50.9905 28.424 51.5131 28.744C52.0465 29.064 52.4518 29.5173 52.7291 30.104C53.0171 30.68 53.1611 31.3573 53.1611 32.136V32.984H47.2891C47.3105 33.9547 47.5558 34.696 48.0251 35.208C48.5051 35.7093 49.1718 35.96 50.0251 35.96C50.5691 35.96 51.0491 35.912 51.4651 35.816C51.8918 35.7093 52.3291 35.56 52.7771 35.368V36.6C52.3398 36.792 51.9078 36.9307 51.4811 37.016C51.0545 37.112 50.5478 37.16 49.9611 37.16C49.1505 37.16 48.4305 36.9947 47.8011 36.664C47.1825 36.3333 46.6971 35.8427 46.3451 35.192C46.0038 34.5307 45.8331 33.7253 45.8331 32.776C45.8331 31.8373 45.9878 31.032 46.2971 30.36C46.6171 29.688 47.0598 29.1707 47.6251 28.808C48.2011 28.4453 48.8678 28.264 49.6251 28.264ZM49.6091 29.416C48.9371 29.416 48.4038 29.6347 48.0091 30.072C47.6251 30.4987 47.3958 31.096 47.3211 31.864H51.6891C51.6891 31.3733 51.6145 30.9467 51.4651 30.584C51.3158 30.2213 51.0865 29.9387 50.7771 29.736C50.4785 29.5227 50.0891 29.416 49.6091 29.416ZM56.7524 37H55.3444V24.84H56.7524V37ZM62.7814 28.264C63.5174 28.264 64.1467 28.424 64.6694 28.744C65.2027 29.064 65.608 29.5173 65.8854 30.104C66.1734 30.68 66.3174 31.3573 66.3174 32.136V32.984H60.4454C60.4667 33.9547 60.712 34.696 61.1814 35.208C61.6614 35.7093 62.328 35.96 63.1814 35.96C63.7254 35.96 64.2054 35.912 64.6214 35.816C65.048 35.7093 65.4854 35.56 65.9334 35.368V36.6C65.496 36.792 65.064 36.9307 64.6374 37.016C64.2107 37.112 63.704 37.16 63.1174 37.16C62.3067 37.16 61.5867 36.9947 60.9574 36.664C60.3387 36.3333 59.8534 35.8427 59.5014 35.192C59.16 34.5307 58.9894 33.7253 58.9894 32.776C58.9894 31.8373 59.144 31.032 59.4534 30.36C59.7734 29.688 60.216 29.1707 60.7814 28.808C61.3574 28.4453 62.024 28.264 62.7814 28.264ZM62.7654 29.416C62.0934 29.416 61.56 29.6347 61.1654 30.072C60.7814 30.4987 60.552 31.096 60.4774 31.864H64.8454C64.8454 31.3733 64.7707 30.9467 64.6214 30.584C64.472 30.2213 64.2427 29.9387 63.9334 29.736C63.6347 29.5227 63.2454 29.416 62.7654 29.416ZM70.0761 37L66.8281 28.424H68.3321L70.1561 33.48C70.2415 33.7147 70.3321 33.976 70.4281 34.264C70.5241 34.552 70.6095 34.8293 70.6841 35.096C70.7588 35.352 70.8121 35.5707 70.8441 35.752H70.9081C70.9508 35.5707 71.0095 35.3467 71.0841 35.08C71.1695 34.8133 71.2601 34.536 71.3561 34.248C71.4628 33.96 71.5535 33.704 71.6281 33.48L73.4521 28.424H74.9561L71.6921 37H70.0761ZM79.5611 28.28C80.6065 28.28 81.3798 28.5093 81.8811 28.968C82.3825 29.4267 82.6331 30.1573 82.6331 31.16V37H81.6091L81.3371 35.784H81.2731C81.0278 36.0933 80.7718 36.3547 80.5051 36.568C80.2491 36.7707 79.9505 36.92 79.6091 37.016C79.2785 37.112 78.8731 37.16 78.3931 37.16C77.8811 37.16 77.4171 37.0693 77.0011 36.888C76.5958 36.7067 76.2758 36.4293 76.0411 36.056C75.8065 35.672 75.6891 35.192 75.6891 34.616C75.6891 33.7627 76.0251 33.1067 76.6971 32.648C77.3691 32.1787 78.4038 31.9227 79.8011 31.88L81.2571 31.832V31.32C81.2571 30.6053 81.1025 30.1093 80.7931 29.832C80.4838 29.5547 80.0465 29.416 79.4811 29.416C79.0331 29.416 78.6065 29.4853 78.2011 29.624C77.7958 29.752 77.4171 29.9013 77.0651 30.072L76.6331 29.016C77.0065 28.8133 77.4491 28.6427 77.9611 28.504C78.4731 28.3547 79.0065 28.28 79.5611 28.28ZM79.9771 32.856C78.9105 32.8987 78.1691 33.0693 77.7531 33.368C77.3478 33.6667 77.1451 34.088 77.1451 34.632C77.1451 35.112 77.2891 35.464 77.5771 35.688C77.8758 35.912 78.2545 36.024 78.7131 36.024C79.4385 36.024 80.0411 35.8267 80.5211 35.432C81.0011 35.0267 81.2411 34.408 81.2411 33.576V32.808L79.9771 32.856ZM89.4099 28.264C90.4339 28.264 91.2072 28.5147 91.7299 29.016C92.2525 29.5067 92.5139 30.3067 92.5139 31.416V37H91.1219V31.512C91.1219 30.8187 90.9672 30.3013 90.6579 29.96C90.3485 29.6187 89.8632 29.448 89.2019 29.448C88.2525 29.448 87.5965 29.7147 87.2339 30.248C86.8712 30.7813 86.6899 31.5493 86.6899 32.552V37H85.2819V28.424H86.4179L86.6259 29.592H86.7059C86.8979 29.2933 87.1325 29.048 87.4099 28.856C87.6979 28.6533 88.0125 28.504 88.3539 28.408C88.6952 28.312 89.0472 28.264 89.4099 28.264ZM98.0365 36.008C98.2498 36.008 98.4685 35.992 98.6925 35.96C98.9165 35.9173 99.0978 35.8747 99.2365 35.832V36.904C99.0872 36.9787 98.8738 37.0373 98.5965 37.08C98.3192 37.1333 98.0525 37.16 97.7965 37.16C97.3485 37.16 96.9325 37.0853 96.5485 36.936C96.1752 36.776 95.8712 36.504 95.6365 36.12C95.4018 35.736 95.2845 35.1973 95.2845 34.504V29.512H94.0685V28.84L95.3005 28.28L95.8605 26.456H96.6925V28.424H99.1725V29.512H96.6925V34.472C96.6925 34.9947 96.8152 35.384 97.0605 35.64C97.3165 35.8853 97.6418 36.008 98.0365 36.008ZM108.358 28.28C109.403 28.28 110.177 28.5093 110.678 28.968C111.179 29.4267 111.43 30.1573 111.43 31.16V37H110.406L110.134 35.784H110.07C109.825 36.0933 109.569 36.3547 109.302 36.568C109.046 36.7707 108.747 36.92 108.406 37.016C108.075 37.112 107.67 37.16 107.19 37.16C106.678 37.16 106.214 37.0693 105.798 36.888C105.393 36.7067 105.073 36.4293 104.838 36.056C104.603 35.672 104.486 35.192 104.486 34.616C104.486 33.7627 104.822 33.1067 105.494 32.648C106.166 32.1787 107.201 31.9227 108.598 31.88L110.054 31.832V31.32C110.054 30.6053 109.899 30.1093 109.59 29.832C109.281 29.5547 108.843 29.416 108.278 29.416C107.83 29.416 107.403 29.4853 106.998 29.624C106.593 29.752 106.214 29.9013 105.862 30.072L105.43 29.016C105.803 28.8133 106.246 28.6427 106.758 28.504C107.27 28.3547 107.803 28.28 108.358 28.28ZM108.774 32.856C107.707 32.8987 106.966 33.0693 106.55 33.368C106.145 33.6667 105.942 34.088 105.942 34.632C105.942 35.112 106.086 35.464 106.374 35.688C106.673 35.912 107.051 36.024 107.51 36.024C108.235 36.024 108.838 35.8267 109.318 35.432C109.798 35.0267 110.038 34.408 110.038 33.576V32.808L108.774 32.856ZM118.079 28.264C118.239 28.264 118.409 28.2747 118.591 28.296C118.783 28.3067 118.948 28.328 119.087 28.36L118.911 29.656C118.772 29.624 118.617 29.5973 118.447 29.576C118.287 29.5547 118.132 29.544 117.983 29.544C117.652 29.544 117.337 29.6133 117.039 29.752C116.74 29.8907 116.473 30.088 116.239 30.344C116.004 30.5893 115.817 30.888 115.679 31.24C115.551 31.592 115.487 31.9867 115.487 32.424V37H114.079V28.424H115.231L115.391 29.992H115.455C115.636 29.672 115.855 29.384 116.111 29.128C116.367 28.8613 116.66 28.6533 116.991 28.504C117.321 28.344 117.684 28.264 118.079 28.264ZM123.552 36.008C123.765 36.008 123.984 35.992 124.208 35.96C124.432 35.9173 124.613 35.8747 124.752 35.832V36.904C124.603 36.9787 124.389 37.0373 124.112 37.08C123.835 37.1333 123.568 37.16 123.312 37.16C122.864 37.16 122.448 37.0853 122.064 36.936C121.691 36.776 121.387 36.504 121.152 36.12C120.917 35.736 120.8 35.1973 120.8 34.504V29.512H119.584V28.84L120.816 28.28L121.376 26.456H122.208V28.424H124.688V29.512H122.208V34.472C122.208 34.9947 122.331 35.384 122.576 35.64C122.832 35.8853 123.157 36.008 123.552 36.008ZM127.877 28.424V37H126.469V28.424H127.877ZM127.189 25.208C127.403 25.208 127.589 25.2827 127.749 25.432C127.92 25.5707 128.005 25.7947 128.005 26.104C128.005 26.4027 127.92 26.6267 127.749 26.776C127.589 26.9253 127.403 27 127.189 27C126.955 27 126.757 26.9253 126.597 26.776C126.437 26.6267 126.357 26.4027 126.357 26.104C126.357 25.7947 126.437 25.5707 126.597 25.432C126.757 25.2827 126.955 25.208 127.189 25.208ZM134.034 37.16C133.277 37.16 132.6 37.0053 132.002 36.696C131.416 36.3867 130.952 35.9067 130.61 35.256C130.28 34.6053 130.114 33.7733 130.114 32.76C130.114 31.704 130.29 30.8453 130.642 30.184C130.994 29.5227 131.469 29.0373 132.066 28.728C132.674 28.4187 133.362 28.264 134.13 28.264C134.568 28.264 134.989 28.312 135.394 28.408C135.8 28.4933 136.13 28.6 136.386 28.728L135.954 29.896C135.698 29.8 135.4 29.7093 135.058 29.624C134.717 29.5387 134.397 29.496 134.098 29.496C133.522 29.496 133.048 29.6187 132.674 29.864C132.301 30.1093 132.024 30.472 131.842 30.952C131.661 31.432 131.57 32.0293 131.57 32.744C131.57 33.4267 131.661 34.008 131.842 34.488C132.024 34.968 132.296 35.3307 132.658 35.576C133.021 35.8213 133.474 35.944 134.018 35.944C134.488 35.944 134.898 35.896 135.25 35.8C135.613 35.704 135.944 35.5867 136.242 35.448V36.696C135.954 36.8453 135.634 36.9573 135.282 37.032C134.941 37.1173 134.525 37.16 134.034 37.16ZM139.69 37H138.282V24.84H139.69V37ZM145.719 28.264C146.455 28.264 147.084 28.424 147.607 28.744C148.14 29.064 148.546 29.5173 148.823 30.104C149.111 30.68 149.255 31.3573 149.255 32.136V32.984H143.383C143.404 33.9547 143.65 34.696 144.119 35.208C144.599 35.7093 145.266 35.96 146.119 35.96C146.663 35.96 147.143 35.912 147.559 35.816C147.986 35.7093 148.423 35.56 148.871 35.368V36.6C148.434 36.792 148.002 36.9307 147.575 37.016C147.148 37.112 146.642 37.16 146.055 37.16C145.244 37.16 144.524 36.9947 143.895 36.664C143.276 36.3333 142.791 35.8427 142.439 35.192C142.098 34.5307 141.927 33.7253 141.927 32.776C141.927 31.8373 142.082 31.032 142.391 30.36C142.711 29.688 143.154 29.1707 143.719 28.808C144.295 28.4453 144.962 28.264 145.719 28.264ZM145.703 29.416C145.031 29.416 144.498 29.6347 144.103 30.072C143.719 30.4987 143.49 31.096 143.415 31.864H147.783C147.783 31.3733 147.708 30.9467 147.559 30.584C147.41 30.2213 147.18 29.9387 146.871 29.736C146.572 29.5227 146.183 29.416 145.703 29.416Z" fill="white"/>
<path d="M35 52H155" stroke="#2A2C38" stroke-width="2" stroke-linecap="round"/>
<path d="M44.792 73.152C47.7573 73.152 49.912 73.7707 51.256 75.008C52.6213 76.2453 53.304 77.952 53.304 80.128C53.304 81.1093 53.1547 82.048 52.856 82.944C52.5573 83.8187 52.056 84.608 51.352 85.312C50.648 86.016 49.72 86.5707 48.568 86.976C47.4373 87.3813 46.0293 87.584 44.344 87.584H42.072V96H37.976V73.152H44.792ZM44.536 76.544H42.072V84.192H43.928C45.0373 84.192 45.976 84.064 46.744 83.808C47.5333 83.5307 48.1307 83.104 48.536 82.528C48.9413 81.952 49.144 81.2053 49.144 80.288C49.144 79.0293 48.7707 78.0907 48.024 77.472C47.2773 76.8533 46.1147 76.544 44.536 76.544ZM72.8925 87.296C72.8925 88.7467 72.7005 90.0267 72.3165 91.136C71.9325 92.2453 71.3778 93.1947 70.6525 93.984C69.9485 94.752 69.0738 95.3387 68.0285 95.744C67.0045 96.128 65.8632 96.32 64.6045 96.32C63.4098 96.32 62.3112 96.128 61.3085 95.744C60.3058 95.3387 59.4312 94.752 58.6845 93.984C57.9592 93.1947 57.3938 92.2453 56.9885 91.136C56.5832 90.0267 56.3805 88.7467 56.3805 87.296C56.3805 85.376 56.7112 83.7547 57.3725 82.432C58.0338 81.088 58.9832 80.0747 60.2205 79.392C61.4792 78.688 62.9618 78.336 64.6685 78.336C66.2898 78.336 67.7085 78.688 68.9245 79.392C70.1618 80.0747 71.1325 81.088 71.8365 82.432C72.5405 83.7547 72.8925 85.376 72.8925 87.296ZM60.5085 87.296C60.5085 88.512 60.6472 89.5573 60.9245 90.432C61.2232 91.2853 61.6712 91.936 62.2685 92.384C62.8872 92.832 63.6765 93.056 64.6365 93.056C65.6178 93.056 66.4072 92.832 67.0045 92.384C67.6232 91.936 68.0712 91.2853 68.3485 90.432C68.6258 89.5573 68.7645 88.512 68.7645 87.296C68.7645 86.0587 68.6152 85.024 68.3165 84.192C68.0392 83.3387 67.5912 82.6987 66.9725 82.272C66.3752 81.824 65.5965 81.6 64.6365 81.6C63.1858 81.6 62.1298 82.0907 61.4685 83.072C60.8285 84.0533 60.5085 85.4613 60.5085 87.296ZM81.0928 96H77.0608V71.68H81.0928V96ZM90.2803 78.656V96H86.2483V78.656H90.2803ZM88.2643 71.968C88.8616 71.968 89.3843 72.128 89.8323 72.448C90.2803 72.7467 90.5043 73.2907 90.5043 74.08C90.5043 74.848 90.2803 75.4027 89.8323 75.744C89.3843 76.064 88.8616 76.224 88.2643 76.224C87.6456 76.224 87.1123 76.064 86.6643 75.744C86.2376 75.4027 86.0243 74.848 86.0243 74.08C86.0243 73.2907 86.2376 72.7467 86.6643 72.448C87.1123 72.128 87.6456 71.968 88.2643 71.968ZM102.156 93.088C102.668 93.088 103.158 93.0453 103.628 92.96C104.097 92.8533 104.534 92.736 104.94 92.608V95.616C104.513 95.808 103.958 95.968 103.276 96.096C102.593 96.2453 101.878 96.32 101.132 96.32C100.15 96.32 99.2544 96.16 98.4438 95.84C97.6544 95.4987 97.0144 94.9227 96.5238 94.112C96.0544 93.3013 95.8198 92.1707 95.8198 90.72V81.696H93.4838V79.936L96.0438 78.528L97.3238 74.848H99.8518V78.656H104.78V81.696H99.8518V90.688C99.8518 91.4987 100.065 92.1067 100.492 92.512C100.918 92.896 101.473 93.088 102.156 93.088ZM112.468 78.656V96H108.436V78.656H112.468ZM110.452 71.968C111.049 71.968 111.572 72.128 112.02 72.448C112.468 72.7467 112.692 73.2907 112.692 74.08C112.692 74.848 112.468 75.4027 112.02 75.744C111.572 76.064 111.049 76.224 110.452 76.224C109.833 76.224 109.3 76.064 108.852 75.744C108.425 75.4027 108.212 74.848 108.212 74.08C108.212 73.2907 108.425 72.7467 108.852 72.448C109.3 72.128 109.833 71.968 110.452 71.968ZM124.631 96.32C122.989 96.32 121.559 96.0107 120.343 95.392C119.149 94.752 118.221 93.7813 117.559 92.48C116.919 91.1573 116.599 89.472 116.599 87.424C116.599 85.2907 116.951 83.5627 117.655 82.24C118.381 80.896 119.373 79.9147 120.631 79.296C121.89 78.656 123.33 78.336 124.951 78.336C126.039 78.336 127.01 78.4427 127.863 78.656C128.717 78.8693 129.442 79.1253 130.039 79.424L128.855 82.592C128.194 82.336 127.533 82.1227 126.871 81.952C126.21 81.76 125.57 81.664 124.951 81.664C123.991 81.664 123.191 81.8773 122.551 82.304C121.933 82.7307 121.474 83.3707 121.175 84.224C120.877 85.056 120.727 86.112 120.727 87.392C120.727 88.6293 120.877 89.664 121.175 90.496C121.495 91.328 121.965 91.9573 122.583 92.384C123.202 92.7893 123.97 92.992 124.887 92.992C125.869 92.992 126.733 92.8747 127.479 92.64C128.226 92.4053 128.93 92.0853 129.591 91.68V95.168C128.93 95.5733 128.215 95.8613 127.447 96.032C126.701 96.224 125.762 96.32 124.631 96.32ZM145.463 90.976C145.463 92.128 145.185 93.1093 144.631 93.92C144.076 94.7093 143.255 95.3067 142.167 95.712C141.1 96.1173 139.788 96.32 138.231 96.32C137.015 96.32 135.969 96.2347 135.095 96.064C134.22 95.8933 133.388 95.6267 132.599 95.264V91.84C133.452 92.2453 134.401 92.5867 135.447 92.864C136.492 93.1413 137.463 93.28 138.359 93.28C139.468 93.28 140.268 93.1093 140.759 92.768C141.249 92.4267 141.495 91.968 141.495 91.392C141.495 91.0507 141.399 90.7413 141.207 90.464C141.015 90.1867 140.641 89.8987 140.087 89.6C139.532 89.28 138.689 88.8853 137.559 88.416C136.449 87.968 135.521 87.52 134.775 87.072C134.049 86.624 133.495 86.0907 133.111 85.472C132.748 84.832 132.567 84.032 132.567 83.072C132.567 81.5147 133.185 80.3413 134.423 79.552C135.66 78.7413 137.292 78.336 139.319 78.336C140.385 78.336 141.388 78.4427 142.327 78.656C143.287 78.848 144.247 79.168 145.207 79.616L143.927 82.592C143.393 82.3573 142.86 82.1547 142.327 81.984C141.815 81.792 141.292 81.6427 140.759 81.536C140.247 81.4293 139.724 81.376 139.191 81.376C138.316 81.376 137.655 81.5147 137.207 81.792C136.759 82.048 136.535 82.4107 136.535 82.88C136.535 83.2427 136.641 83.5627 136.855 83.84C137.089 84.096 137.484 84.3627 138.039 84.64C138.615 84.896 139.425 85.2373 140.47 85.664C141.516 86.0693 142.401 86.496 143.127 86.944C143.873 87.3707 144.449 87.904 144.855 88.544C145.26 89.184 145.463 89.9947 145.463 90.976ZM173.142 87.296C173.142 88.7467 172.951 90.0267 172.567 91.136C172.183 92.2453 171.628 93.1947 170.903 93.984C170.199 94.752 169.324 95.3387 168.279 95.744C167.255 96.128 166.113 96.32 164.855 96.32C163.66 96.32 162.561 96.128 161.559 95.744C160.556 95.3387 159.681 94.752 158.935 93.984C158.209 93.1947 157.644 92.2453 157.239 91.136C156.833 90.0267 156.631 88.7467 156.631 87.296C156.631 85.376 156.961 83.7547 157.623 82.432C158.284 81.088 159.233 80.0747 160.471 79.392C161.729 78.688 163.212 78.336 164.919 78.336C166.54 78.336 167.959 78.688 169.175 79.392C170.412 80.0747 171.383 81.088 172.087 82.432C172.791 83.7547 173.142 85.376 173.142 87.296ZM160.759 87.296C160.759 88.512 160.897 89.5573 161.175 90.432C161.473 91.2853 161.921 91.936 162.519 92.384C163.137 92.832 163.927 93.056 164.887 93.056C165.868 93.056 166.657 92.832 167.255 92.384C167.873 91.936 168.321 91.2853 168.599 90.432C168.876 89.5573 169.015 88.512 169.015 87.296C169.015 86.0587 168.865 85.024 168.567 84.192C168.289 83.3387 167.841 82.6987 167.223 82.272C166.625 81.824 165.847 81.6 164.887 81.6C163.436 81.6 162.38 82.0907 161.719 83.072C161.079 84.0533 160.759 85.4613 160.759 87.296ZM186.303 81.696H182.111V96H178.079V81.696H175.295V79.776L178.079 78.624V77.44C178.079 75.9467 178.313 74.7733 178.783 73.92C179.252 73.0667 179.935 72.4587 180.831 72.096C181.727 71.712 182.783 71.52 183.999 71.52C184.852 71.52 185.62 71.5947 186.303 71.744C186.985 71.872 187.551 72.0213 187.999 72.192L186.975 75.2C186.612 75.0933 186.207 74.9973 185.759 74.912C185.332 74.8053 184.863 74.752 184.351 74.752C183.583 74.752 183.017 74.9973 182.655 75.488C182.292 75.9787 182.111 76.6613 182.111 77.536V78.656H186.303V81.696ZM211.162 89.76C211.162 91.104 210.832 92.2667 210.17 93.248C209.509 94.2293 208.549 94.9867 207.29 95.52C206.053 96.0533 204.57 96.32 202.842 96.32C202.01 96.32 201.21 96.2667 200.442 96.16C199.696 96.0747 198.981 95.936 198.298 95.744C197.637 95.552 197.018 95.3173 196.442 95.04V91.2C197.402 91.6267 198.458 92.0213 199.61 92.384C200.762 92.7253 201.936 92.896 203.13 92.896C204.048 92.896 204.794 92.7787 205.37 92.544C205.968 92.288 206.405 91.9467 206.682 91.52C206.96 91.072 207.098 90.56 207.098 89.984C207.098 89.344 206.917 88.8 206.554 88.352C206.192 87.904 205.658 87.488 204.954 87.104C204.25 86.72 203.376 86.3147 202.33 85.888C201.626 85.5893 200.933 85.2587 200.25 84.896C199.589 84.512 198.992 84.0533 198.458 83.52C197.925 82.9867 197.498 82.3573 197.178 81.632C196.858 80.9067 196.698 80.0533 196.698 79.072C196.698 77.7707 197.008 76.6507 197.626 75.712C198.266 74.7733 199.152 74.0587 200.282 73.568C201.434 73.0773 202.768 72.832 204.282 72.832C205.498 72.832 206.64 72.96 207.706 73.216C208.773 73.472 209.829 73.8347 210.874 74.304L209.562 77.6C208.624 77.1947 207.717 76.8747 206.842 76.64C205.968 76.4053 205.072 76.288 204.154 76.288C203.429 76.288 202.81 76.4053 202.298 76.64C201.786 76.8533 201.402 77.1627 201.146 77.568C200.89 77.9733 200.762 78.4427 200.762 78.976C200.762 79.5947 200.922 80.1173 201.242 80.544C201.562 80.9707 202.053 81.376 202.714 81.76C203.397 82.1227 204.272 82.5387 205.338 83.008C206.576 83.5413 207.621 84.096 208.474 84.672C209.328 85.248 209.989 85.9413 210.458 86.752C210.928 87.5627 211.162 88.5653 211.162 89.76ZM219.092 83.232C219.092 83.7867 219.071 84.3733 219.028 84.992C218.985 85.5893 218.943 86.176 218.9 86.752H218.996C219.167 86.496 219.369 86.2187 219.604 85.92C219.839 85.6 220.073 85.2907 220.308 84.992C220.564 84.672 220.809 84.384 221.044 84.128L226.164 78.656H230.74L223.796 86.144L231.188 96H226.484L221.108 88.576L219.092 90.24V96H215.092V71.68H219.092V83.232ZM240.881 78.336C242.438 78.336 243.771 78.656 244.881 79.296C246.011 79.9147 246.886 80.8107 247.505 81.984C248.123 83.136 248.433 84.544 248.433 86.208V88.256H236.977C237.019 89.8347 237.457 91.0613 238.289 91.936C239.121 92.7893 240.273 93.216 241.745 93.216C242.875 93.216 243.878 93.1093 244.753 92.896C245.649 92.6613 246.566 92.3307 247.505 91.904V95.136C246.651 95.5413 245.766 95.84 244.849 96.032C243.931 96.224 242.833 96.32 241.553 96.32C239.867 96.32 238.363 96 237.041 95.36C235.739 94.6987 234.715 93.7067 233.969 92.384C233.243 91.0613 232.881 89.4187 232.881 87.456C232.881 85.472 233.211 83.808 233.873 82.464C234.555 81.0987 235.494 80.0747 236.689 79.392C237.883 78.688 239.281 78.336 240.881 78.336ZM240.881 81.312C239.814 81.312 238.939 81.664 238.257 82.368C237.595 83.0507 237.201 84.0747 237.073 85.44H244.529C244.529 84.6293 244.39 83.9147 244.113 83.296C243.857 82.6773 243.462 82.1973 242.929 81.856C242.395 81.4933 241.713 81.312 240.881 81.312ZM256.53 96H252.498V71.68H256.53V96ZM265.718 96H261.686V71.68H265.718V96ZM277.849 78.336C279.407 78.336 280.74 78.656 281.849 79.296C282.98 79.9147 283.855 80.8107 284.473 81.984C285.092 83.136 285.401 84.544 285.401 86.208V88.256H273.945C273.988 89.8347 274.425 91.0613 275.257 91.936C276.089 92.7893 277.241 93.216 278.713 93.216C279.844 93.216 280.847 93.1093 281.721 92.896C282.617 92.6613 283.535 92.3307 284.473 91.904V95.136C283.62 95.5413 282.735 95.84 281.817 96.032C280.9 96.224 279.801 96.32 278.521 96.32C276.836 96.32 275.332 96 274.009 95.36C272.708 94.6987 271.684 93.7067 270.937 92.384C270.212 91.0613 269.849 89.4187 269.849 87.456C269.849 85.472 270.18 83.808 270.841 82.464C271.524 81.0987 272.463 80.0747 273.657 79.392C274.852 78.688 276.249 78.336 277.849 78.336ZM277.849 81.312C276.783 81.312 275.908 81.664 275.225 82.368C274.564 83.0507 274.169 84.0747 274.041 85.44H281.497C281.497 84.6293 281.359 83.9147 281.081 83.296C280.825 82.6773 280.431 82.1973 279.897 81.856C279.364 81.4933 278.681 81.312 277.849 81.312ZM298.459 81.696H294.267V96H290.235V81.696H287.451V79.776L290.235 78.624V77.44C290.235 75.9467 290.47 74.7733 290.939 73.92C291.408 73.0667 292.091 72.4587 292.987 72.096C293.883 71.712 294.939 71.52 296.155 71.52C297.008 71.52 297.776 71.5947 298.459 71.744C299.142 71.872 299.707 72.0213 300.155 72.192L299.131 75.2C298.768 75.0933 298.363 74.9973 297.915 74.912C297.488 74.8053 297.019 74.752 296.507 74.752C295.739 74.752 295.174 74.9973 294.811 75.488C294.448 75.9787 294.267 76.6613 294.267 77.536V78.656H298.459V81.696ZM308.062 93.088C308.574 93.088 309.065 93.0453 309.534 92.96C310.003 92.8533 310.441 92.736 310.846 92.608V95.616C310.419 95.808 309.865 95.968 309.182 96.096C308.499 96.2453 307.785 96.32 307.038 96.32C306.057 96.32 305.161 96.16 304.35 95.84C303.561 95.4987 302.921 94.9227 302.43 94.112C301.961 93.3013 301.726 92.1707 301.726 90.72V81.696H299.39V79.936L301.95 78.528L303.23 74.848H305.758V78.656H310.686V81.696H305.758V90.688C305.758 91.4987 305.971 92.1067 306.398 92.512C306.825 92.896 307.379 93.088 308.062 93.088ZM321.318 78.336C322.875 78.336 324.209 78.656 325.318 79.296C326.449 79.9147 327.323 80.8107 327.942 81.984C328.561 83.136 328.87 84.544 328.87 86.208V88.256H317.414C317.457 89.8347 317.894 91.0613 318.726 91.936C319.558 92.7893 320.71 93.216 322.182 93.216C323.313 93.216 324.315 93.1093 325.19 92.896C326.086 92.6613 327.003 92.3307 327.942 91.904V95.136C327.089 95.5413 326.203 95.84 325.286 96.032C324.369 96.224 323.27 96.32 321.99 96.32C320.305 96.32 318.801 96 317.478 95.36C316.177 94.6987 315.153 93.7067 314.406 92.384C313.681 91.0613 313.318 89.4187 313.318 87.456C313.318 85.472 313.649 83.808 314.31 82.464C314.993 81.0987 315.931 80.0747 317.126 79.392C318.321 78.688 319.718 78.336 321.318 78.336ZM321.318 81.312C320.251 81.312 319.377 81.664 318.694 82.368C318.033 83.0507 317.638 84.0747 317.51 85.44H324.966C324.966 84.6293 324.827 83.9147 324.55 83.296C324.294 82.6773 323.899 82.1973 323.366 81.856C322.833 81.4933 322.15 81.312 321.318 81.312ZM336.968 96H332.936V71.68H336.968V96ZM346.155 96H342.123V71.68H346.155V96ZM358.223 78.336C360.463 78.336 362.159 78.8267 363.311 79.808C364.484 80.768 365.071 82.2827 365.071 84.352V96H362.223L361.423 93.6H361.295C360.804 94.2187 360.292 94.7413 359.759 95.168C359.247 95.5733 358.649 95.8613 357.967 96.032C357.305 96.224 356.495 96.32 355.535 96.32C354.511 96.32 353.583 96.128 352.751 95.744C351.94 95.36 351.3 94.7733 350.831 93.984C350.361 93.1733 350.127 92.16 350.127 90.944C350.127 89.152 350.777 87.808 352.079 86.912C353.401 85.9947 355.396 85.4933 358.063 85.408L361.071 85.312V84.448C361.071 83.3387 360.804 82.5493 360.271 82.08C359.737 81.6107 358.991 81.376 358.031 81.376C357.156 81.376 356.313 81.504 355.503 81.76C354.692 82.016 353.903 82.3147 353.135 82.656L351.855 79.84C352.708 79.392 353.679 79.0293 354.767 78.752C355.876 78.4747 357.028 78.336 358.223 78.336ZM358.959 87.872C357.188 87.936 355.961 88.2453 355.279 88.8C354.596 89.3333 354.255 90.0587 354.255 90.976C354.255 91.7867 354.5 92.3733 354.991 92.736C355.481 93.0987 356.111 93.28 356.879 93.28C358.052 93.28 359.044 92.9493 359.855 92.288C360.665 91.6053 361.071 90.6027 361.071 89.28V87.808L358.959 87.872Z" fill="white"/>
<defs>
<linearGradient id="paint0_linear_101_155" x1="1484" y1="65" x2="0" y2="65" gradientUnits="userSpaceOnUse">
<stop stop-color="#082A43"/>
<stop offset="1" stop-color="#0F4C7A"/>
</linearGradient>
</defs>
</svg>
