<svg width="1484" height="55" viewBox="0 0 1484 55" fill="none" xmlns="http://www.w3.org/2000/svg">
<line x1="1.5" y1="53.5" x2="1482.5" y2="53.5" stroke="#02477B" stroke-width="3" stroke-linecap="round"/>
<path d="M544.32 39V12.84H548.96V24.72H549.08L558.4 12.84H563.56L555.52 23.04L564.92 39H559.8L552.72 26.68L548.96 31.36V39H544.32ZM575.718 39.48C573.905 39.48 572.265 39.08 570.798 38.28C569.332 37.4533 568.172 36.28 567.318 34.76C566.465 33.2133 566.038 31.36 566.038 29.2C566.038 27.0667 566.465 25.2267 567.318 23.68C568.198 22.1333 569.332 20.9467 570.718 20.12C572.105 19.2933 573.558 18.88 575.078 18.88C576.865 18.88 578.358 19.28 579.558 20.08C580.758 20.8533 581.665 21.9467 582.278 23.36C582.892 24.7467 583.198 26.36 583.198 28.2C583.198 29.16 583.132 29.9067 582.998 30.44H570.518C570.732 32.1733 571.358 33.52 572.398 34.48C573.438 35.44 574.745 35.92 576.318 35.92C577.172 35.92 577.958 35.8 578.678 35.56C579.425 35.2933 580.158 34.9333 580.878 34.48L582.438 37.36C581.505 37.9733 580.465 38.48 579.318 38.88C578.172 39.28 576.972 39.48 575.718 39.48ZM570.478 27.32H579.198C579.198 25.8 578.865 24.6133 578.198 23.76C577.532 22.88 576.532 22.44 575.198 22.44C574.052 22.44 573.025 22.8667 572.118 23.72C571.238 24.5467 570.692 25.7467 570.478 27.32ZM588.912 47.08C588.379 47.08 587.912 47.04 587.512 46.96C587.112 46.88 586.725 46.7867 586.352 46.68L587.192 43.08C587.379 43.1333 587.592 43.1867 587.832 43.24C588.099 43.32 588.352 43.36 588.592 43.36C589.632 43.36 590.459 43.04 591.072 42.4C591.712 41.7867 592.192 40.9867 592.512 40L592.872 38.76L585.152 19.36H589.832L593.232 29C593.525 29.8533 593.805 30.76 594.072 31.72C594.365 32.6533 594.659 33.5867 594.952 34.52H595.112C595.352 33.6133 595.592 32.6933 595.832 31.76C596.099 30.8 596.352 29.88 596.592 29L599.552 19.36H603.992L596.872 39.88C596.045 42.0933 595.045 43.84 593.872 45.12C592.699 46.4267 591.045 47.08 588.912 47.08ZM615.804 39V12.84H631.604V16.76H620.444V24.16H629.964V28.08H620.444V39H615.804ZM639.11 39.48C637.403 39.48 636.003 38.9467 634.91 37.88C633.843 36.8133 633.31 35.4267 633.31 33.72C633.31 31.6133 634.23 29.9867 636.07 28.84C637.91 27.6667 640.843 26.8667 644.87 26.44C644.843 25.4 644.563 24.5067 644.03 23.76C643.523 22.9867 642.603 22.6 641.27 22.6C640.31 22.6 639.363 22.7867 638.43 23.16C637.523 23.5333 636.63 23.9867 635.75 24.52L634.07 21.44C635.163 20.7467 636.39 20.1467 637.75 19.64C639.136 19.1333 640.603 18.88 642.15 18.88C644.603 18.88 646.43 19.6133 647.63 21.08C648.856 22.52 649.47 24.6133 649.47 27.36V39H645.67L645.35 36.84H645.19C644.31 37.5867 643.363 38.2133 642.35 38.72C641.363 39.2267 640.283 39.48 639.11 39.48ZM640.59 35.88C641.39 35.88 642.11 35.6933 642.75 35.32C643.416 34.92 644.123 34.3867 644.87 33.72V29.32C642.203 29.6667 640.35 30.1867 639.31 30.88C638.27 31.5467 637.75 32.3733 637.75 33.36C637.75 34.24 638.016 34.88 638.55 35.28C639.083 35.68 639.763 35.88 640.59 35.88ZM663.175 39.48C661.388 39.48 659.775 39.08 658.335 38.28C656.921 37.4533 655.788 36.28 654.935 34.76C654.108 33.2133 653.695 31.36 653.695 29.2C653.695 27.0133 654.148 25.16 655.055 23.64C655.961 22.0933 657.161 20.92 658.655 20.12C660.175 19.2933 661.801 18.88 663.535 18.88C664.788 18.88 665.881 19.0933 666.815 19.52C667.748 19.9467 668.575 20.4667 669.295 21.08L667.055 24.08C666.548 23.6267 666.028 23.28 665.495 23.04C664.961 22.7733 664.388 22.64 663.775 22.64C662.201 22.64 660.908 23.24 659.895 24.44C658.908 25.64 658.415 27.2267 658.415 29.2C658.415 31.1467 658.895 32.72 659.855 33.92C660.841 35.12 662.108 35.72 663.655 35.72C664.428 35.72 665.148 35.56 665.815 35.24C666.508 34.8933 667.135 34.4933 667.695 34.04L669.575 37.08C668.668 37.88 667.655 38.48 666.535 38.88C665.415 39.28 664.295 39.48 663.175 39.48ZM679.981 39.48C677.714 39.48 676.101 38.8267 675.141 37.52C674.207 36.1867 673.741 34.4667 673.741 32.36V23H670.941V19.56L673.981 19.36L674.541 14H678.381V19.36H683.381V23H678.381V32.36C678.381 34.6533 679.301 35.8 681.141 35.8C681.487 35.8 681.847 35.76 682.221 35.68C682.594 35.5733 682.914 35.4667 683.181 35.36L683.981 38.76C683.447 38.9467 682.834 39.1067 682.141 39.24C681.474 39.4 680.754 39.48 679.981 39.48ZM692.603 39.48C691.27 39.48 689.936 39.2267 688.603 38.72C687.27 38.1867 686.123 37.5333 685.163 36.76L687.323 33.8C688.203 34.4667 689.083 35 689.963 35.4C690.843 35.8 691.776 36 692.763 36C693.83 36 694.616 35.7733 695.123 35.32C695.63 34.8667 695.883 34.3067 695.883 33.64C695.883 33.08 695.67 32.6267 695.243 32.28C694.843 31.9067 694.323 31.5867 693.683 31.32C693.043 31.0267 692.376 30.7467 691.683 30.48C690.83 30.16 689.976 29.7733 689.123 29.32C688.296 28.84 687.616 28.24 687.083 27.52C686.55 26.7733 686.283 25.8533 686.283 24.76C686.283 23.0267 686.923 21.6133 688.203 20.52C689.483 19.4267 691.216 18.88 693.403 18.88C694.79 18.88 696.03 19.12 697.123 19.6C698.216 20.08 699.163 20.6267 699.963 21.24L697.843 24.04C697.15 23.5333 696.443 23.1333 695.723 22.84C695.03 22.52 694.296 22.36 693.523 22.36C692.536 22.36 691.803 22.5733 691.323 23C690.843 23.4 690.603 23.9067 690.603 24.52C690.603 25.2933 691.003 25.88 691.803 26.28C692.603 26.68 693.536 27.0667 694.603 27.44C695.51 27.76 696.39 28.16 697.243 28.64C698.096 29.0933 698.803 29.6933 699.363 30.44C699.95 31.1867 700.243 32.1733 700.243 33.4C700.243 35.08 699.59 36.52 698.283 37.72C696.976 38.8933 695.083 39.48 692.603 39.48ZM720.398 39.48C718.771 39.48 717.251 39.08 715.838 38.28C714.424 37.4533 713.278 36.28 712.398 34.76C711.518 33.2133 711.078 31.36 711.078 29.2C711.078 27.0133 711.518 25.16 712.398 23.64C713.278 22.0933 714.424 20.92 715.838 20.12C717.251 19.2933 718.771 18.88 720.398 18.88C722.051 18.88 723.584 19.2933 724.998 20.12C726.411 20.92 727.558 22.0933 728.438 23.64C729.318 25.16 729.758 27.0133 729.758 29.2C729.758 31.36 729.318 33.2133 728.438 34.76C727.558 36.28 726.411 37.4533 724.998 38.28C723.584 39.08 722.051 39.48 720.398 39.48ZM720.398 35.72C721.838 35.72 722.971 35.12 723.798 33.92C724.624 32.72 725.038 31.1467 725.038 29.2C725.038 27.2267 724.624 25.64 723.798 24.44C722.971 23.24 721.838 22.64 720.398 22.64C718.958 22.64 717.824 23.24 716.998 24.44C716.198 25.64 715.798 27.2267 715.798 29.2C715.798 31.1467 716.198 32.72 716.998 33.92C717.824 35.12 718.958 35.72 720.398 35.72ZM734.954 39V23H732.314V19.56L734.954 19.36V17.32C734.954 15.2667 735.461 13.5867 736.474 12.28C737.488 10.9467 739.154 10.28 741.474 10.28C742.168 10.28 742.834 10.3467 743.474 10.48C744.114 10.6133 744.648 10.7733 745.074 10.96L744.194 14.4C743.474 14.08 742.754 13.92 742.034 13.92C740.381 13.92 739.554 15.0267 739.554 17.24V19.36H743.394V23H739.554V39H734.954ZM762.898 39.48C761.138 39.48 759.431 39.1467 757.778 38.48C756.151 37.8133 754.711 36.8667 753.458 35.64L756.178 32.48C757.111 33.36 758.178 34.08 759.378 34.64C760.578 35.1733 761.778 35.44 762.978 35.44C764.471 35.44 765.604 35.1333 766.378 34.52C767.151 33.9067 767.538 33.0933 767.538 32.08C767.538 30.9867 767.151 30.2 766.378 29.72C765.631 29.24 764.671 28.7467 763.498 28.24L759.898 26.68C759.044 26.3067 758.204 25.8267 757.378 25.24C756.578 24.6533 755.911 23.9067 755.378 23C754.871 22.0933 754.618 21 754.618 19.72C754.618 18.3333 754.991 17.0933 755.738 16C756.511 14.88 757.551 14 758.858 13.36C760.191 12.6933 761.711 12.36 763.418 12.36C764.938 12.36 766.404 12.6667 767.818 13.28C769.231 13.8667 770.444 14.6667 771.458 15.68L769.098 18.64C768.271 17.9467 767.391 17.4 766.458 17C765.551 16.6 764.538 16.4 763.418 16.4C762.191 16.4 761.191 16.68 760.418 17.24C759.671 17.7733 759.298 18.52 759.298 19.48C759.298 20.1467 759.484 20.7067 759.858 21.16C760.258 21.5867 760.778 21.96 761.418 22.28C762.058 22.5733 762.738 22.8667 763.458 23.16L767.018 24.64C768.564 25.3067 769.831 26.1867 770.818 27.28C771.804 28.3467 772.298 29.8267 772.298 31.72C772.298 33.1333 771.924 34.4267 771.178 35.6C770.431 36.7733 769.351 37.72 767.938 38.44C766.551 39.1333 764.871 39.48 762.898 39.48ZM776.654 39V10.76H781.174V28.4H781.294L788.574 19.36H793.614L786.894 27.36L794.294 39H789.294L784.254 30.48L781.174 34V39H776.654ZM805.015 39.48C803.202 39.48 801.562 39.08 800.095 38.28C798.629 37.4533 797.469 36.28 796.615 34.76C795.762 33.2133 795.335 31.36 795.335 29.2C795.335 27.0667 795.762 25.2267 796.615 23.68C797.495 22.1333 798.629 20.9467 800.015 20.12C801.402 19.2933 802.855 18.88 804.375 18.88C806.162 18.88 807.655 19.28 808.855 20.08C810.055 20.8533 810.962 21.9467 811.575 23.36C812.189 24.7467 812.495 26.36 812.495 28.2C812.495 29.16 812.429 29.9067 812.295 30.44H799.815C800.029 32.1733 800.655 33.52 801.695 34.48C802.735 35.44 804.042 35.92 805.615 35.92C806.469 35.92 807.255 35.8 807.975 35.56C808.722 35.2933 809.455 34.9333 810.175 34.48L811.735 37.36C810.802 37.9733 809.762 38.48 808.615 38.88C807.469 39.28 806.269 39.48 805.015 39.48ZM799.775 27.32H808.495C808.495 25.8 808.162 24.6133 807.495 23.76C806.829 22.88 805.829 22.44 804.495 22.44C803.349 22.44 802.322 22.8667 801.415 23.72C800.535 24.5467 799.989 25.7467 799.775 27.32ZM821.369 39.48C819.742 39.48 818.582 38.9867 817.889 38C817.222 37.0133 816.889 35.6667 816.889 33.96V10.76H821.489V34.2C821.489 34.76 821.595 35.16 821.809 35.4C822.022 35.6133 822.249 35.72 822.489 35.72C822.595 35.72 822.689 35.72 822.769 35.72C822.875 35.6933 823.022 35.6667 823.209 35.64L823.809 39.08C823.542 39.1867 823.195 39.28 822.769 39.36C822.369 39.44 821.902 39.48 821.369 39.48ZM832.228 39.48C830.601 39.48 829.441 38.9867 828.748 38C828.081 37.0133 827.748 35.6667 827.748 33.96V10.76H832.348V34.2C832.348 34.76 832.455 35.16 832.668 35.4C832.881 35.6133 833.108 35.72 833.348 35.72C833.455 35.72 833.548 35.72 833.628 35.72C833.735 35.6933 833.881 35.6667 834.068 35.64L834.668 39.08C834.401 39.1867 834.055 39.28 833.628 39.36C833.228 39.44 832.761 39.48 832.228 39.48ZM847.008 39.48C845.194 39.48 843.554 39.08 842.088 38.28C840.621 37.4533 839.461 36.28 838.608 34.76C837.754 33.2133 837.328 31.36 837.328 29.2C837.328 27.0667 837.754 25.2267 838.608 23.68C839.488 22.1333 840.621 20.9467 842.008 20.12C843.394 19.2933 844.848 18.88 846.368 18.88C848.154 18.88 849.648 19.28 850.848 20.08C852.048 20.8533 852.954 21.9467 853.568 23.36C854.181 24.7467 854.488 26.36 854.488 28.2C854.488 29.16 854.421 29.9067 854.288 30.44H841.808C842.021 32.1733 842.648 33.52 843.688 34.48C844.728 35.44 846.034 35.92 847.608 35.92C848.461 35.92 849.248 35.8 849.968 35.56C850.714 35.2933 851.448 34.9333 852.168 34.48L853.728 37.36C852.794 37.9733 851.754 38.48 850.608 38.88C849.461 39.28 848.261 39.48 847.008 39.48ZM841.768 27.32H850.488C850.488 25.8 850.154 24.6133 849.488 23.76C848.821 22.88 847.821 22.44 846.488 22.44C845.341 22.44 844.314 22.8667 843.408 23.72C842.528 24.5467 841.981 25.7467 841.768 27.32ZM859.525 39V23H856.885V19.56L859.525 19.36V17.32C859.525 15.2667 860.031 13.5867 861.045 12.28C862.058 10.9467 863.725 10.28 866.045 10.28C866.738 10.28 867.405 10.3467 868.045 10.48C868.685 10.6133 869.218 10.7733 869.645 10.96L868.765 14.4C868.045 14.08 867.325 13.92 866.605 13.92C864.951 13.92 864.125 15.0267 864.125 17.24V19.36H870.885L871.445 14H875.245V19.36H880.285V23H875.245V32.36C875.245 34.6533 876.178 35.8 878.045 35.8C878.391 35.8 878.751 35.76 879.125 35.68C879.498 35.5733 879.818 35.4667 880.085 35.36L880.885 38.76C880.351 38.9467 879.738 39.1067 879.045 39.24C878.378 39.4 877.645 39.48 876.845 39.48C874.578 39.48 872.978 38.8267 872.045 37.52C871.111 36.1867 870.645 34.4667 870.645 32.36V23H864.125V39H859.525ZM892.164 39.48C890.35 39.48 888.71 39.08 887.244 38.28C885.777 37.4533 884.617 36.28 883.764 34.76C882.91 33.2133 882.484 31.36 882.484 29.2C882.484 27.0667 882.91 25.2267 883.764 23.68C884.644 22.1333 885.777 20.9467 887.164 20.12C888.55 19.2933 890.004 18.88 891.524 18.88C893.31 18.88 894.804 19.28 896.004 20.08C897.204 20.8533 898.11 21.9467 898.724 23.36C899.337 24.7467 899.644 26.36 899.644 28.2C899.644 29.16 899.577 29.9067 899.444 30.44H886.964C887.177 32.1733 887.804 33.52 888.844 34.48C889.884 35.44 891.19 35.92 892.764 35.92C893.617 35.92 894.404 35.8 895.124 35.56C895.87 35.2933 896.604 34.9333 897.324 34.48L898.884 37.36C897.95 37.9733 896.91 38.48 895.764 38.88C894.617 39.28 893.417 39.48 892.164 39.48ZM886.924 27.32H895.644C895.644 25.8 895.31 24.6133 894.644 23.76C893.977 22.88 892.977 22.44 891.644 22.44C890.497 22.44 889.47 22.8667 888.564 23.72C887.684 24.5467 887.137 25.7467 886.924 27.32ZM908.517 39.48C906.891 39.48 905.731 38.9867 905.037 38C904.371 37.0133 904.037 35.6667 904.037 33.96V10.76H908.637V34.2C908.637 34.76 908.744 35.16 908.957 35.4C909.171 35.6133 909.397 35.72 909.637 35.72C909.744 35.72 909.837 35.72 909.917 35.72C910.024 35.6933 910.171 35.6667 910.357 35.64L910.957 39.08C910.691 39.1867 910.344 39.28 909.917 39.36C909.517 39.44 909.051 39.48 908.517 39.48ZM919.377 39.48C917.75 39.48 916.59 38.9867 915.897 38C915.23 37.0133 914.897 35.6667 914.897 33.96V10.76H919.497V34.2C919.497 34.76 919.603 35.16 919.817 35.4C920.03 35.6133 920.257 35.72 920.497 35.72C920.603 35.72 920.697 35.72 920.777 35.72C920.883 35.6933 921.03 35.6667 921.217 35.64L921.817 39.08C921.55 39.1867 921.203 39.28 920.777 39.36C920.377 39.44 919.91 39.48 919.377 39.48ZM930.516 39.48C928.809 39.48 927.409 38.9467 926.316 37.88C925.249 36.8133 924.716 35.4267 924.716 33.72C924.716 31.6133 925.636 29.9867 927.476 28.84C929.316 27.6667 932.249 26.8667 936.276 26.44C936.249 25.4 935.969 24.5067 935.436 23.76C934.929 22.9867 934.009 22.6 932.676 22.6C931.716 22.6 930.769 22.7867 929.836 23.16C928.929 23.5333 928.036 23.9867 927.156 24.52L925.476 21.44C926.569 20.7467 927.796 20.1467 929.156 19.64C930.543 19.1333 932.009 18.88 933.556 18.88C936.009 18.88 937.836 19.6133 939.036 21.08C940.263 22.52 940.876 24.6133 940.876 27.36V39H937.076L936.756 36.84H936.596C935.716 37.5867 934.769 38.2133 933.756 38.72C932.769 39.2267 931.689 39.48 930.516 39.48ZM931.996 35.88C932.796 35.88 933.516 35.6933 934.156 35.32C934.823 34.92 935.529 34.3867 936.276 33.72V29.32C933.609 29.6667 931.756 30.1867 930.716 30.88C929.676 31.5467 929.156 32.3733 929.156 33.36C929.156 34.24 929.423 34.88 929.956 35.28C930.489 35.68 931.169 35.88 931.996 35.88Z" fill="#02477B"/>
</svg>
