<svg width="1484" height="130" viewBox="0 0 1484 130" fill="none" xmlns="http://www.w3.org/2000/svg">
<rect width="1484" height="130" fill="url(#paint0_linear_101_206)"/>
<path d="M1411.73 60.7325C1412.09 60.3763 1412.54 60.1361 1413.04 60.0433C1413.53 59.9505 1414.05 60.0095 1414.51 60.2125L1439.51 71.2125C1439.98 71.423 1440.38 71.7751 1440.64 72.2202C1440.91 72.6653 1441.03 73.1815 1440.98 73.6977C1440.94 74.2138 1440.74 74.7045 1440.41 75.1021C1440.08 75.4997 1439.63 75.7846 1439.13 75.9175L1429.46 78.455L1426.92 88.135C1426.79 88.6362 1426.5 89.0839 1426.1 89.4162C1425.7 89.7484 1425.21 89.9487 1424.7 89.9893C1424.18 90.0299 1423.66 89.9089 1423.22 89.643C1422.77 89.3771 1422.42 88.9794 1422.21 88.505L1411.21 63.505C1411.01 63.0442 1410.95 62.5331 1411.04 62.0384C1411.14 61.5437 1411.38 61.0886 1411.73 60.7325ZM1401.86 75.5975C1402.09 75.3587 1402.37 75.1683 1402.67 75.0372C1402.98 74.9062 1403.31 74.8373 1403.64 74.8344C1403.97 74.8315 1404.3 74.8947 1404.61 75.0204C1404.91 75.1461 1405.19 75.3318 1405.43 75.5665C1405.66 75.8012 1405.85 76.0804 1405.97 76.3876C1406.1 76.6949 1406.16 77.0241 1406.16 77.356C1406.16 77.688 1406.09 78.016 1405.96 78.321C1405.83 78.626 1405.64 78.9019 1405.4 79.1325L1400.1 84.435C1399.62 84.8904 1398.99 85.1424 1398.34 85.1367C1397.68 85.131 1397.05 84.8681 1396.59 84.4045C1396.13 83.941 1395.86 83.314 1395.86 82.6585C1395.85 82.003 1396.1 81.3715 1396.56 80.9L1401.86 75.5975ZM1398.51 62.4875C1399.18 62.4875 1399.81 62.7509 1400.28 63.2197C1400.75 63.6886 1401.01 64.3245 1401.01 64.9875C1401.01 65.6505 1400.75 66.2864 1400.28 66.7553C1399.81 67.2241 1399.18 67.4875 1398.51 67.4875H1391.01C1390.35 67.4875 1389.71 67.2241 1389.24 66.7553C1388.78 66.2864 1388.51 65.6505 1388.51 64.9875C1388.51 64.3245 1388.78 63.6886 1389.24 63.2197C1389.71 62.7509 1390.35 62.4875 1391.01 62.4875H1398.51ZM1396.56 45.5625C1397.03 45.0938 1397.66 44.8305 1398.33 44.8305C1398.99 44.8305 1399.63 45.0938 1400.1 45.5625L1405.4 50.8675C1405.84 51.3411 1406.08 51.969 1406.07 52.6182C1406.06 53.2674 1405.8 53.887 1405.34 54.346C1404.88 54.8049 1404.26 55.0672 1403.61 55.0773C1402.96 55.0874 1402.34 54.8445 1401.86 54.4L1396.56 49.1C1396.09 48.6312 1395.83 47.9954 1395.83 47.3325C1395.83 46.6696 1396.09 46.0313 1396.56 45.5625ZM1431.92 45.55C1432.14 45.3058 1432.42 45.1102 1432.73 44.9748C1433.03 44.8393 1433.36 44.7669 1433.7 44.7617C1434.03 44.7565 1434.37 44.8186 1434.68 44.9445C1434.99 45.0703 1435.27 45.2573 1435.51 45.4942C1435.74 45.7312 1435.93 46.0133 1436.06 46.3239C1436.18 46.6344 1436.24 46.967 1436.24 47.302C1436.23 47.6369 1436.16 47.9673 1436.02 48.2736C1435.89 48.5799 1435.69 48.8559 1435.45 49.085L1430.15 54.385C1429.68 54.8407 1429.05 55.0932 1428.39 55.088C1427.73 55.0827 1427.11 54.8202 1426.64 54.357C1426.18 53.8939 1425.92 53.267 1425.91 52.6115C1425.9 51.956 1426.16 51.3243 1426.61 50.8525L1431.92 45.55ZM1413.5 47.5V40C1413.5 39.337 1413.76 38.7011 1414.23 38.2322C1414.7 37.7634 1415.34 37.5 1416 37.5C1416.66 37.5 1417.3 37.7634 1417.77 38.2322C1418.24 38.7011 1418.5 39.337 1418.5 40V47.5C1418.5 48.163 1418.24 48.7989 1417.77 49.2678C1417.3 49.7366 1416.66 50 1416 50C1415.34 50 1414.7 49.7366 1414.23 49.2678C1413.76 48.7989 1413.5 48.163 1413.5 47.5Z" fill="white"/>
<path d="M39.704 25.576C40.6533 25.576 41.432 25.6987 42.04 25.944C42.6587 26.1787 43.1173 26.536 43.416 27.016C43.7147 27.496 43.864 28.0987 43.864 28.824C43.864 29.432 43.752 29.9387 43.528 30.344C43.304 30.7493 43.016 31.0747 42.664 31.32C42.3227 31.5547 41.96 31.7413 41.576 31.88L44.712 37H43.032L40.264 32.28H37.992V37H36.552V25.576H39.704ZM39.624 26.824H37.992V31.064H39.704C40.3227 31.064 40.8293 30.984 41.224 30.824C41.6187 30.6533 41.9067 30.408 42.088 30.088C42.28 29.768 42.376 29.368 42.376 28.888C42.376 28.3867 42.2747 27.9867 42.072 27.688C41.88 27.3893 41.5813 27.1707 41.176 27.032C40.7707 26.8933 40.2533 26.824 39.624 26.824ZM49.6251 28.264C50.3611 28.264 50.9905 28.424 51.5131 28.744C52.0465 29.064 52.4518 29.5173 52.7291 30.104C53.0171 30.68 53.1611 31.3573 53.1611 32.136V32.984H47.2891C47.3105 33.9547 47.5558 34.696 48.0251 35.208C48.5051 35.7093 49.1718 35.96 50.0251 35.96C50.5691 35.96 51.0491 35.912 51.4651 35.816C51.8918 35.7093 52.3291 35.56 52.7771 35.368V36.6C52.3398 36.792 51.9078 36.9307 51.4811 37.016C51.0545 37.112 50.5478 37.16 49.9611 37.16C49.1505 37.16 48.4305 36.9947 47.8011 36.664C47.1825 36.3333 46.6971 35.8427 46.3451 35.192C46.0038 34.5307 45.8331 33.7253 45.8331 32.776C45.8331 31.8373 45.9878 31.032 46.2971 30.36C46.6171 29.688 47.0598 29.1707 47.6251 28.808C48.2011 28.4453 48.8678 28.264 49.6251 28.264ZM49.6091 29.416C48.9371 29.416 48.4038 29.6347 48.0091 30.072C47.6251 30.4987 47.3958 31.096 47.3211 31.864H51.6891C51.6891 31.3733 51.6145 30.9467 51.4651 30.584C51.3158 30.2213 51.0865 29.9387 50.7771 29.736C50.4785 29.5227 50.0891 29.416 49.6091 29.416ZM56.7524 37H55.3444V24.84H56.7524V37ZM62.7814 28.264C63.5174 28.264 64.1467 28.424 64.6694 28.744C65.2027 29.064 65.608 29.5173 65.8854 30.104C66.1734 30.68 66.3174 31.3573 66.3174 32.136V32.984H60.4454C60.4667 33.9547 60.712 34.696 61.1814 35.208C61.6614 35.7093 62.328 35.96 63.1814 35.96C63.7254 35.96 64.2054 35.912 64.6214 35.816C65.048 35.7093 65.4854 35.56 65.9334 35.368V36.6C65.496 36.792 65.064 36.9307 64.6374 37.016C64.2107 37.112 63.704 37.16 63.1174 37.16C62.3067 37.16 61.5867 36.9947 60.9574 36.664C60.3387 36.3333 59.8534 35.8427 59.5014 35.192C59.16 34.5307 58.9894 33.7253 58.9894 32.776C58.9894 31.8373 59.144 31.032 59.4534 30.36C59.7734 29.688 60.216 29.1707 60.7814 28.808C61.3574 28.4453 62.024 28.264 62.7814 28.264ZM62.7654 29.416C62.0934 29.416 61.56 29.6347 61.1654 30.072C60.7814 30.4987 60.552 31.096 60.4774 31.864H64.8454C64.8454 31.3733 64.7707 30.9467 64.6214 30.584C64.472 30.2213 64.2427 29.9387 63.9334 29.736C63.6347 29.5227 63.2454 29.416 62.7654 29.416ZM70.0761 37L66.8281 28.424H68.3321L70.1561 33.48C70.2415 33.7147 70.3321 33.976 70.4281 34.264C70.5241 34.552 70.6095 34.8293 70.6841 35.096C70.7588 35.352 70.8121 35.5707 70.8441 35.752H70.9081C70.9508 35.5707 71.0095 35.3467 71.0841 35.08C71.1695 34.8133 71.2601 34.536 71.3561 34.248C71.4628 33.96 71.5535 33.704 71.6281 33.48L73.4521 28.424H74.9561L71.6921 37H70.0761ZM79.5611 28.28C80.6065 28.28 81.3798 28.5093 81.8811 28.968C82.3825 29.4267 82.6331 30.1573 82.6331 31.16V37H81.6091L81.3371 35.784H81.2731C81.0278 36.0933 80.7718 36.3547 80.5051 36.568C80.2491 36.7707 79.9505 36.92 79.6091 37.016C79.2785 37.112 78.8731 37.16 78.3931 37.16C77.8811 37.16 77.4171 37.0693 77.0011 36.888C76.5958 36.7067 76.2758 36.4293 76.0411 36.056C75.8065 35.672 75.6891 35.192 75.6891 34.616C75.6891 33.7627 76.0251 33.1067 76.6971 32.648C77.3691 32.1787 78.4038 31.9227 79.8011 31.88L81.2571 31.832V31.32C81.2571 30.6053 81.1025 30.1093 80.7931 29.832C80.4838 29.5547 80.0465 29.416 79.4811 29.416C79.0331 29.416 78.6065 29.4853 78.2011 29.624C77.7958 29.752 77.4171 29.9013 77.0651 30.072L76.6331 29.016C77.0065 28.8133 77.4491 28.6427 77.9611 28.504C78.4731 28.3547 79.0065 28.28 79.5611 28.28ZM79.9771 32.856C78.9105 32.8987 78.1691 33.0693 77.7531 33.368C77.3478 33.6667 77.1451 34.088 77.1451 34.632C77.1451 35.112 77.2891 35.464 77.5771 35.688C77.8758 35.912 78.2545 36.024 78.7131 36.024C79.4385 36.024 80.0411 35.8267 80.5211 35.432C81.0011 35.0267 81.2411 34.408 81.2411 33.576V32.808L79.9771 32.856ZM89.4099 28.264C90.4339 28.264 91.2072 28.5147 91.7299 29.016C92.2525 29.5067 92.5139 30.3067 92.5139 31.416V37H91.1219V31.512C91.1219 30.8187 90.9672 30.3013 90.6579 29.96C90.3485 29.6187 89.8632 29.448 89.2019 29.448C88.2525 29.448 87.5965 29.7147 87.2339 30.248C86.8712 30.7813 86.6899 31.5493 86.6899 32.552V37H85.2819V28.424H86.4179L86.6259 29.592H86.7059C86.8979 29.2933 87.1325 29.048 87.4099 28.856C87.6979 28.6533 88.0125 28.504 88.3539 28.408C88.6952 28.312 89.0472 28.264 89.4099 28.264ZM98.0365 36.008C98.2498 36.008 98.4685 35.992 98.6925 35.96C98.9165 35.9173 99.0978 35.8747 99.2365 35.832V36.904C99.0872 36.9787 98.8738 37.0373 98.5965 37.08C98.3192 37.1333 98.0525 37.16 97.7965 37.16C97.3485 37.16 96.9325 37.0853 96.5485 36.936C96.1752 36.776 95.8712 36.504 95.6365 36.12C95.4018 35.736 95.2845 35.1973 95.2845 34.504V29.512H94.0685V28.84L95.3005 28.28L95.8605 26.456H96.6925V28.424H99.1725V29.512H96.6925V34.472C96.6925 34.9947 96.8152 35.384 97.0605 35.64C97.3165 35.8853 97.6418 36.008 98.0365 36.008ZM108.358 28.28C109.403 28.28 110.177 28.5093 110.678 28.968C111.179 29.4267 111.43 30.1573 111.43 31.16V37H110.406L110.134 35.784H110.07C109.825 36.0933 109.569 36.3547 109.302 36.568C109.046 36.7707 108.747 36.92 108.406 37.016C108.075 37.112 107.67 37.16 107.19 37.16C106.678 37.16 106.214 37.0693 105.798 36.888C105.393 36.7067 105.073 36.4293 104.838 36.056C104.603 35.672 104.486 35.192 104.486 34.616C104.486 33.7627 104.822 33.1067 105.494 32.648C106.166 32.1787 107.201 31.9227 108.598 31.88L110.054 31.832V31.32C110.054 30.6053 109.899 30.1093 109.59 29.832C109.281 29.5547 108.843 29.416 108.278 29.416C107.83 29.416 107.403 29.4853 106.998 29.624C106.593 29.752 106.214 29.9013 105.862 30.072L105.43 29.016C105.803 28.8133 106.246 28.6427 106.758 28.504C107.27 28.3547 107.803 28.28 108.358 28.28ZM108.774 32.856C107.707 32.8987 106.966 33.0693 106.55 33.368C106.145 33.6667 105.942 34.088 105.942 34.632C105.942 35.112 106.086 35.464 106.374 35.688C106.673 35.912 107.051 36.024 107.51 36.024C108.235 36.024 108.838 35.8267 109.318 35.432C109.798 35.0267 110.038 34.408 110.038 33.576V32.808L108.774 32.856ZM118.079 28.264C118.239 28.264 118.409 28.2747 118.591 28.296C118.783 28.3067 118.948 28.328 119.087 28.36L118.911 29.656C118.772 29.624 118.617 29.5973 118.447 29.576C118.287 29.5547 118.132 29.544 117.983 29.544C117.652 29.544 117.337 29.6133 117.039 29.752C116.74 29.8907 116.473 30.088 116.239 30.344C116.004 30.5893 115.817 30.888 115.679 31.24C115.551 31.592 115.487 31.9867 115.487 32.424V37H114.079V28.424H115.231L115.391 29.992H115.455C115.636 29.672 115.855 29.384 116.111 29.128C116.367 28.8613 116.66 28.6533 116.991 28.504C117.321 28.344 117.684 28.264 118.079 28.264ZM123.552 36.008C123.765 36.008 123.984 35.992 124.208 35.96C124.432 35.9173 124.613 35.8747 124.752 35.832V36.904C124.603 36.9787 124.389 37.0373 124.112 37.08C123.835 37.1333 123.568 37.16 123.312 37.16C122.864 37.16 122.448 37.0853 122.064 36.936C121.691 36.776 121.387 36.504 121.152 36.12C120.917 35.736 120.8 35.1973 120.8 34.504V29.512H119.584V28.84L120.816 28.28L121.376 26.456H122.208V28.424H124.688V29.512H122.208V34.472C122.208 34.9947 122.331 35.384 122.576 35.64C122.832 35.8853 123.157 36.008 123.552 36.008ZM127.877 28.424V37H126.469V28.424H127.877ZM127.189 25.208C127.403 25.208 127.589 25.2827 127.749 25.432C127.92 25.5707 128.005 25.7947 128.005 26.104C128.005 26.4027 127.92 26.6267 127.749 26.776C127.589 26.9253 127.403 27 127.189 27C126.955 27 126.757 26.9253 126.597 26.776C126.437 26.6267 126.357 26.4027 126.357 26.104C126.357 25.7947 126.437 25.5707 126.597 25.432C126.757 25.2827 126.955 25.208 127.189 25.208ZM134.034 37.16C133.277 37.16 132.6 37.0053 132.002 36.696C131.416 36.3867 130.952 35.9067 130.61 35.256C130.28 34.6053 130.114 33.7733 130.114 32.76C130.114 31.704 130.29 30.8453 130.642 30.184C130.994 29.5227 131.469 29.0373 132.066 28.728C132.674 28.4187 133.362 28.264 134.13 28.264C134.568 28.264 134.989 28.312 135.394 28.408C135.8 28.4933 136.13 28.6 136.386 28.728L135.954 29.896C135.698 29.8 135.4 29.7093 135.058 29.624C134.717 29.5387 134.397 29.496 134.098 29.496C133.522 29.496 133.048 29.6187 132.674 29.864C132.301 30.1093 132.024 30.472 131.842 30.952C131.661 31.432 131.57 32.0293 131.57 32.744C131.57 33.4267 131.661 34.008 131.842 34.488C132.024 34.968 132.296 35.3307 132.658 35.576C133.021 35.8213 133.474 35.944 134.018 35.944C134.488 35.944 134.898 35.896 135.25 35.8C135.613 35.704 135.944 35.5867 136.242 35.448V36.696C135.954 36.8453 135.634 36.9573 135.282 37.032C134.941 37.1173 134.525 37.16 134.034 37.16ZM139.69 37H138.282V24.84H139.69V37ZM145.719 28.264C146.455 28.264 147.084 28.424 147.607 28.744C148.14 29.064 148.546 29.5173 148.823 30.104C149.111 30.68 149.255 31.3573 149.255 32.136V32.984H143.383C143.404 33.9547 143.65 34.696 144.119 35.208C144.599 35.7093 145.266 35.96 146.119 35.96C146.663 35.96 147.143 35.912 147.559 35.816C147.986 35.7093 148.423 35.56 148.871 35.368V36.6C148.434 36.792 148.002 36.9307 147.575 37.016C147.148 37.112 146.642 37.16 146.055 37.16C145.244 37.16 144.524 36.9947 143.895 36.664C143.276 36.3333 142.791 35.8427 142.439 35.192C142.098 34.5307 141.927 33.7253 141.927 32.776C141.927 31.8373 142.082 31.032 142.391 30.36C142.711 29.688 143.154 29.1707 143.719 28.808C144.295 28.4453 144.962 28.264 145.719 28.264ZM145.703 29.416C145.031 29.416 144.498 29.6347 144.103 30.072C143.719 30.4987 143.49 31.096 143.415 31.864H147.783C147.783 31.3733 147.708 30.9467 147.559 30.584C147.41 30.2213 147.18 29.9387 146.871 29.736C146.572 29.5227 146.183 29.416 145.703 29.416Z" fill="white"/>
<path d="M35 52H155" stroke="#2A2C38" stroke-width="2" stroke-linecap="round"/>
<path d="M47.096 83.456H55.736V95.072C54.52 95.4773 53.272 95.7867 51.992 96C50.712 96.2133 49.2613 96.32 47.64 96.32C45.336 96.32 43.384 95.8613 41.784 94.944C40.184 94.0267 38.968 92.6933 38.136 90.944C37.304 89.1947 36.888 87.0613 36.888 84.544C36.888 82.1547 37.3573 80.0853 38.296 78.336C39.2347 76.5867 40.5787 75.232 42.328 74.272C44.0987 73.312 46.2533 72.832 48.792 72.832C50.0293 72.832 51.224 72.96 52.376 73.216C53.5493 73.4507 54.616 73.7813 55.576 74.208L54.168 77.568C53.4427 77.2053 52.6 76.9067 51.64 76.672C50.7013 76.416 49.72 76.288 48.696 76.288C47.1387 76.288 45.7947 76.6293 44.664 77.312C43.5333 77.9947 42.6587 78.9653 42.04 80.224C41.4427 81.4613 41.144 82.9227 41.144 84.608C41.144 86.2293 41.3787 87.6693 41.848 88.928C42.3173 90.1653 43.064 91.136 44.088 91.84C45.112 92.5227 46.4453 92.864 48.088 92.864C48.6427 92.864 49.1227 92.8427 49.528 92.8C49.9547 92.7573 50.3387 92.704 50.68 92.64C51.0427 92.576 51.384 92.512 51.704 92.448V86.944H47.096V83.456ZM67.7868 78.336C69.3441 78.336 70.6774 78.656 71.7868 79.296C72.9174 79.9147 73.7921 80.8107 74.4108 81.984C75.0294 83.136 75.3388 84.544 75.3388 86.208V88.256H63.8828C63.9254 89.8347 64.3628 91.0613 65.1948 91.936C66.0268 92.7893 67.1788 93.216 68.6508 93.216C69.7814 93.216 70.7841 93.1093 71.6588 92.896C72.5548 92.6613 73.4721 92.3307 74.4108 91.904V95.136C73.5574 95.5413 72.6721 95.84 71.7548 96.032C70.8374 96.224 69.7388 96.32 68.4588 96.32C66.7734 96.32 65.2694 96 63.9468 95.36C62.6454 94.6987 61.6214 93.7067 60.8748 92.384C60.1494 91.0613 59.7868 89.4187 59.7868 87.456C59.7868 85.472 60.1174 83.808 60.7788 82.464C61.4614 81.0987 62.4001 80.0747 63.5948 79.392C64.7894 78.688 66.1868 78.336 67.7868 78.336ZM67.7868 81.312C66.7201 81.312 65.8454 81.664 65.1628 82.368C64.5014 83.0507 64.1068 84.0747 63.9788 85.44H71.4348C71.4348 84.6293 71.2961 83.9147 71.0188 83.296C70.7628 82.6773 70.3681 82.1973 69.8348 81.856C69.3014 81.4933 68.6188 81.312 67.7868 81.312ZM94.8925 87.296C94.8925 88.7467 94.7005 90.0267 94.3165 91.136C93.9325 92.2453 93.3778 93.1947 92.6525 93.984C91.9485 94.752 91.0738 95.3387 90.0285 95.744C89.0045 96.128 87.8632 96.32 86.6045 96.32C85.4098 96.32 84.3112 96.128 83.3085 95.744C82.3058 95.3387 81.4312 94.752 80.6845 93.984C79.9592 93.1947 79.3938 92.2453 78.9885 91.136C78.5832 90.0267 78.3805 88.7467 78.3805 87.296C78.3805 85.376 78.7112 83.7547 79.3725 82.432C80.0338 81.088 80.9832 80.0747 82.2205 79.392C83.4792 78.688 84.9618 78.336 86.6685 78.336C88.2898 78.336 89.7085 78.688 90.9245 79.392C92.1618 80.0747 93.1325 81.088 93.8365 82.432C94.5405 83.7547 94.8925 85.376 94.8925 87.296ZM82.5085 87.296C82.5085 88.512 82.6472 89.5573 82.9245 90.432C83.2232 91.2853 83.6712 91.936 84.2685 92.384C84.8872 92.832 85.6765 93.056 86.6365 93.056C87.6178 93.056 88.4072 92.832 89.0045 92.384C89.6232 91.936 90.0712 91.2853 90.3485 90.432C90.6258 89.5573 90.7645 88.512 90.7645 87.296C90.7645 86.0587 90.6152 85.024 90.3165 84.192C90.0392 83.3387 89.5912 82.6987 88.9725 82.272C88.3752 81.824 87.5965 81.6 86.6365 81.6C85.1858 81.6 84.1298 82.0907 83.4685 83.072C82.8285 84.0533 82.5085 85.4613 82.5085 87.296ZM104.885 78.336C105.973 78.336 106.954 78.5493 107.829 78.976C108.703 79.4027 109.439 80.0427 110.037 80.896H110.197L110.581 78.656H113.941V96.128C113.941 97.7707 113.631 99.1467 113.013 100.256C112.394 101.387 111.466 102.24 110.229 102.816C108.991 103.392 107.445 103.68 105.589 103.68C104.351 103.68 103.21 103.595 102.165 103.424C101.119 103.275 100.127 103.008 99.1888 102.624V99.296C99.8501 99.5733 100.533 99.808 101.237 100C101.962 100.213 102.709 100.373 103.477 100.48C104.245 100.587 105.034 100.64 105.845 100.64C107.167 100.64 108.17 100.267 108.853 99.52C109.557 98.7733 109.909 97.7067 109.909 96.32V95.872C109.909 95.552 109.919 95.1787 109.941 94.752C109.983 94.3253 110.015 93.984 110.037 93.728H109.909C109.311 94.624 108.586 95.2853 107.733 95.712C106.879 96.1173 105.898 96.32 104.789 96.32C102.677 96.32 101.023 95.5307 99.8288 93.952C98.6341 92.3733 98.0368 90.176 98.0368 87.36C98.0368 85.4613 98.3034 83.84 98.8368 82.496C99.3914 81.152 100.181 80.128 101.205 79.424C102.229 78.6987 103.455 78.336 104.885 78.336ZM105.941 81.632C105.13 81.632 104.437 81.856 103.861 82.304C103.306 82.7307 102.879 83.3707 102.581 84.224C102.303 85.0773 102.165 86.144 102.165 87.424C102.165 89.3013 102.485 90.72 103.125 91.68C103.765 92.64 104.725 93.12 106.005 93.12C106.73 93.12 107.349 93.0347 107.861 92.864C108.373 92.672 108.789 92.3733 109.109 91.968C109.45 91.5413 109.706 91.008 109.877 90.368C110.047 89.7067 110.133 88.9173 110.133 88V87.392C110.133 86.0053 109.983 84.896 109.685 84.064C109.386 83.2107 108.927 82.592 108.309 82.208C107.711 81.824 106.922 81.632 105.941 81.632ZM128.18 78.336C128.436 78.336 128.735 78.3467 129.076 78.368C129.417 78.3893 129.705 78.432 129.94 78.496L129.588 82.24C129.396 82.1973 129.14 82.1653 128.82 82.144C128.521 82.1013 128.255 82.08 128.02 82.08C127.38 82.08 126.761 82.1867 126.164 82.4C125.588 82.592 125.065 82.8907 124.596 83.296C124.148 83.68 123.785 84.1813 123.508 84.8C123.252 85.4187 123.124 86.1547 123.124 87.008V96H119.092V78.656H122.196L122.772 81.664H122.964C123.305 81.0453 123.732 80.4907 124.244 80C124.756 79.488 125.343 79.0827 126.004 78.784C126.687 78.4853 127.412 78.336 128.18 78.336ZM139.442 78.336C141.682 78.336 143.378 78.8267 144.53 79.808C145.703 80.768 146.29 82.2827 146.29 84.352V96H143.442L142.642 93.6H142.514C142.023 94.2187 141.511 94.7413 140.978 95.168C140.466 95.5733 139.868 95.8613 139.186 96.032C138.524 96.224 137.714 96.32 136.754 96.32C135.73 96.32 134.802 96.128 133.97 95.744C133.159 95.36 132.519 94.7733 132.049 93.984C131.58 93.1733 131.346 92.16 131.346 90.944C131.346 89.152 131.996 87.808 133.298 86.912C134.62 85.9947 136.615 85.4933 139.282 85.408L142.29 85.312V84.448C142.29 83.3387 142.023 82.5493 141.49 82.08C140.956 81.6107 140.21 81.376 139.25 81.376C138.375 81.376 137.532 81.504 136.722 81.76C135.911 82.016 135.122 82.3147 134.354 82.656L133.074 79.84C133.927 79.392 134.898 79.0293 135.986 78.752C137.095 78.4747 138.247 78.336 139.442 78.336ZM140.178 87.872C138.407 87.936 137.18 88.2453 136.498 88.8C135.815 89.3333 135.474 90.0587 135.474 90.976C135.474 91.7867 135.719 92.3733 136.21 92.736C136.7 93.0987 137.33 93.28 138.098 93.28C139.271 93.28 140.263 92.9493 141.074 92.288C141.884 91.6053 142.29 90.6027 142.29 89.28V87.808L140.178 87.872ZM160.462 78.336C162.489 78.336 164.121 79.0933 165.358 80.608C166.595 82.1013 167.214 84.3307 167.214 87.296C167.214 89.2587 166.926 90.912 166.35 92.256C165.774 93.6 164.974 94.6133 163.95 95.296C162.926 95.9787 161.731 96.32 160.366 96.32C159.534 96.32 158.798 96.2133 158.158 96C157.518 95.7653 156.974 95.4773 156.526 95.136C156.078 94.7733 155.694 94.3893 155.374 93.984H155.118C155.203 94.368 155.267 94.8053 155.31 95.296C155.353 95.7653 155.374 96.2133 155.374 96.64V103.68H151.342V78.656H154.606L155.182 80.96H155.374C155.694 80.4693 156.078 80.032 156.526 79.648C156.995 79.2427 157.55 78.9227 158.19 78.688C158.851 78.4533 159.609 78.336 160.462 78.336ZM159.31 81.6C158.371 81.6 157.614 81.792 157.038 82.176C156.462 82.5387 156.046 83.104 155.79 83.872C155.534 84.64 155.395 85.6 155.374 86.752V87.264C155.374 88.5013 155.491 89.5467 155.726 90.4C155.982 91.2533 156.398 91.904 156.974 92.352C157.571 92.8 158.371 93.024 159.374 93.024C160.227 93.024 160.921 92.7893 161.454 92.32C162.009 91.8507 162.414 91.1893 162.67 90.336C162.947 89.4613 163.086 88.4267 163.086 87.232C163.086 85.44 162.777 84.0533 162.158 83.072C161.561 82.0907 160.611 81.6 159.31 81.6ZM175.405 77.472C175.405 78.1547 175.373 78.8267 175.309 79.488C175.267 80.128 175.224 80.608 175.181 80.928H175.437C175.8 80.3307 176.248 79.8507 176.781 79.488C177.315 79.104 177.901 78.816 178.541 78.624C179.203 78.432 179.885 78.336 180.589 78.336C181.891 78.336 183.011 78.56 183.949 79.008C184.888 79.456 185.603 80.1493 186.093 81.088C186.605 82.0053 186.861 83.2107 186.861 84.704V96H182.829V85.504C182.829 84.1813 182.573 83.2 182.061 82.56C181.549 81.92 180.739 81.6 179.629 81.6C178.563 81.6 177.72 81.8347 177.101 82.304C176.483 82.752 176.045 83.424 175.789 84.32C175.533 85.1947 175.405 86.272 175.405 87.552V96H171.373V71.68H175.405V77.472ZM189.312 78.656H193.697L197.153 88.448C197.302 88.8747 197.43 89.2907 197.536 89.696C197.665 90.08 197.771 90.4747 197.857 90.88C197.942 91.2853 198.006 91.6907 198.049 92.096H198.177C198.262 91.5627 198.39 90.976 198.561 90.336C198.753 89.696 198.945 89.0667 199.137 88.448L202.465 78.656H206.817L199.425 98.304C198.998 99.4347 198.454 100.405 197.793 101.216C197.153 102.027 196.385 102.635 195.489 103.04C194.614 103.467 193.622 103.68 192.513 103.68C192.001 103.68 191.542 103.648 191.137 103.584C190.753 103.541 190.411 103.488 190.113 103.424V100.224C190.347 100.267 190.625 100.309 190.945 100.352C191.286 100.395 191.638 100.416 192.001 100.416C192.662 100.416 193.227 100.277 193.697 100C194.187 99.744 194.593 99.3813 194.913 98.912C195.254 98.4427 195.531 97.92 195.745 97.344L196.257 95.936L189.312 78.656ZM233.205 87.296C233.205 88.7467 233.013 90.0267 232.629 91.136C232.245 92.2453 231.69 93.1947 230.965 93.984C230.261 94.752 229.386 95.3387 228.341 95.744C227.317 96.128 226.176 96.32 224.917 96.32C223.722 96.32 222.624 96.128 221.621 95.744C220.618 95.3387 219.744 94.752 218.997 93.984C218.272 93.1947 217.706 92.2453 217.301 91.136C216.896 90.0267 216.693 88.7467 216.693 87.296C216.693 85.376 217.024 83.7547 217.685 82.432C218.346 81.088 219.296 80.0747 220.533 79.392C221.792 78.688 223.274 78.336 224.981 78.336C226.602 78.336 228.021 78.688 229.237 79.392C230.474 80.0747 231.445 81.088 232.149 82.432C232.853 83.7547 233.205 85.376 233.205 87.296ZM220.821 87.296C220.821 88.512 220.96 89.5573 221.237 90.432C221.536 91.2853 221.984 91.936 222.581 92.384C223.2 92.832 223.989 93.056 224.949 93.056C225.93 93.056 226.72 92.832 227.317 92.384C227.936 91.936 228.384 91.2853 228.661 90.432C228.938 89.5573 229.077 88.512 229.077 87.296C229.077 86.0587 228.928 85.024 228.629 84.192C228.352 83.3387 227.904 82.6987 227.285 82.272C226.688 81.824 225.909 81.6 224.949 81.6C223.498 81.6 222.442 82.0907 221.781 83.072C221.141 84.0533 220.821 85.4613 220.821 87.296ZM246.365 81.696H242.173V96H238.141V81.696H235.357V79.776L238.141 78.624V77.44C238.141 75.9467 238.376 74.7733 238.845 73.92C239.315 73.0667 239.997 72.4587 240.893 72.096C241.789 71.712 242.845 71.52 244.061 71.52C244.915 71.52 245.683 71.5947 246.365 71.744C247.048 71.872 247.613 72.0213 248.061 72.192L247.037 75.2C246.675 75.0933 246.269 74.9973 245.821 74.912C245.395 74.8053 244.925 74.752 244.413 74.752C243.645 74.752 243.08 74.9973 242.717 75.488C242.355 75.9787 242.173 76.6613 242.173 77.536V78.656H246.365V81.696ZM271.225 89.76C271.225 91.104 270.894 92.2667 270.233 93.248C269.571 94.2293 268.611 94.9867 267.353 95.52C266.115 96.0533 264.633 96.32 262.905 96.32C262.073 96.32 261.273 96.2667 260.505 96.16C259.758 96.0747 259.043 95.936 258.361 95.744C257.699 95.552 257.081 95.3173 256.505 95.04V91.2C257.465 91.6267 258.521 92.0213 259.673 92.384C260.825 92.7253 261.998 92.896 263.193 92.896C264.11 92.896 264.857 92.7787 265.433 92.544C266.03 92.288 266.467 91.9467 266.745 91.52C267.022 91.072 267.161 90.56 267.161 89.984C267.161 89.344 266.979 88.8 266.617 88.352C266.254 87.904 265.721 87.488 265.017 87.104C264.313 86.72 263.438 86.3147 262.393 85.888C261.689 85.5893 260.995 85.2587 260.313 84.896C259.651 84.512 259.054 84.0533 258.521 83.52C257.987 82.9867 257.561 82.3573 257.241 81.632C256.921 80.9067 256.761 80.0533 256.761 79.072C256.761 77.7707 257.07 76.6507 257.689 75.712C258.329 74.7733 259.214 74.0587 260.345 73.568C261.497 73.0773 262.83 72.832 264.345 72.832C265.561 72.832 266.702 72.96 267.769 73.216C268.835 73.472 269.891 73.8347 270.937 74.304L269.625 77.6C268.686 77.1947 267.779 76.8747 266.905 76.64C266.03 76.4053 265.134 76.288 264.217 76.288C263.491 76.288 262.873 76.4053 262.361 76.64C261.849 76.8533 261.465 77.1627 261.209 77.568C260.953 77.9733 260.825 78.4427 260.825 78.976C260.825 79.5947 260.985 80.1173 261.305 80.544C261.625 80.9707 262.115 81.376 262.777 81.76C263.459 82.1227 264.334 82.5387 265.401 83.008C266.638 83.5413 267.683 84.096 268.537 84.672C269.39 85.248 270.051 85.9413 270.521 86.752C270.99 87.5627 271.225 88.5653 271.225 89.76ZM279.155 83.232C279.155 83.7867 279.133 84.3733 279.091 84.992C279.048 85.5893 279.005 86.176 278.963 86.752H279.059C279.229 86.496 279.432 86.2187 279.667 85.92C279.901 85.6 280.136 85.2907 280.371 84.992C280.627 84.672 280.872 84.384 281.107 84.128L286.227 78.656H290.803L283.859 86.144L291.251 96H286.547L281.171 88.576L279.155 90.24V96H275.155V71.68H279.155V83.232ZM300.943 78.336C302.5 78.336 303.834 78.656 304.943 79.296C306.074 79.9147 306.948 80.8107 307.567 81.984C308.186 83.136 308.495 84.544 308.495 86.208V88.256H297.039C297.082 89.8347 297.519 91.0613 298.351 91.936C299.183 92.7893 300.335 93.216 301.807 93.216C302.938 93.216 303.94 93.1093 304.815 92.896C305.711 92.6613 306.628 92.3307 307.567 91.904V95.136C306.714 95.5413 305.828 95.84 304.911 96.032C303.994 96.224 302.895 96.32 301.615 96.32C299.93 96.32 298.426 96 297.103 95.36C295.802 94.6987 294.778 93.7067 294.031 92.384C293.306 91.0613 292.943 89.4187 292.943 87.456C292.943 85.472 293.274 83.808 293.935 82.464C294.618 81.0987 295.556 80.0747 296.751 79.392C297.946 78.688 299.343 78.336 300.943 78.336ZM300.943 81.312C299.876 81.312 299.002 81.664 298.319 82.368C297.658 83.0507 297.263 84.0747 297.135 85.44H304.591C304.591 84.6293 304.452 83.9147 304.175 83.296C303.919 82.6773 303.524 82.1973 302.991 81.856C302.458 81.4933 301.775 81.312 300.943 81.312ZM316.593 96H312.561V71.68H316.593V96ZM325.78 96H321.748V71.68H325.78V96ZM337.912 78.336C339.469 78.336 340.802 78.656 341.912 79.296C343.042 79.9147 343.917 80.8107 344.536 81.984C345.154 83.136 345.464 84.544 345.464 86.208V88.256H334.008C334.05 89.8347 334.488 91.0613 335.32 91.936C336.152 92.7893 337.304 93.216 338.776 93.216C339.906 93.216 340.909 93.1093 341.784 92.896C342.68 92.6613 343.597 92.3307 344.536 91.904V95.136C343.682 95.5413 342.797 95.84 341.88 96.032C340.962 96.224 339.864 96.32 338.584 96.32C336.898 96.32 335.394 96 334.072 95.36C332.77 94.6987 331.746 93.7067 331 92.384C330.274 91.0613 329.912 89.4187 329.912 87.456C329.912 85.472 330.242 83.808 330.904 82.464C331.586 81.0987 332.525 80.0747 333.72 79.392C334.914 78.688 336.312 78.336 337.912 78.336ZM337.912 81.312C336.845 81.312 335.97 81.664 335.288 82.368C334.626 83.0507 334.232 84.0747 334.104 85.44H341.56C341.56 84.6293 341.421 83.9147 341.144 83.296C340.888 82.6773 340.493 82.1973 339.96 81.856C339.426 81.4933 338.744 81.312 337.912 81.312ZM358.522 81.696H354.33V96H350.298V81.696H347.514V79.776L350.298 78.624V77.44C350.298 75.9467 350.532 74.7733 351.002 73.92C351.471 73.0667 352.154 72.4587 353.05 72.096C353.946 71.712 355.002 71.52 356.218 71.52C357.071 71.52 357.839 71.5947 358.522 71.744C359.204 71.872 359.77 72.0213 360.218 72.192L359.194 75.2C358.831 75.0933 358.426 74.9973 357.978 74.912C357.551 74.8053 357.082 74.752 356.57 74.752C355.802 74.752 355.236 74.9973 354.874 75.488C354.511 75.9787 354.33 76.6613 354.33 77.536V78.656H358.522V81.696ZM368.125 93.088C368.637 93.088 369.127 93.0453 369.597 92.96C370.066 92.8533 370.503 92.736 370.909 92.608V95.616C370.482 95.808 369.927 95.968 369.245 96.096C368.562 96.2453 367.847 96.32 367.101 96.32C366.119 96.32 365.223 96.16 364.413 95.84C363.623 95.4987 362.983 94.9227 362.493 94.112C362.023 93.3013 361.789 92.1707 361.789 90.72V81.696H359.453V79.936L362.013 78.528L363.293 74.848H365.821V78.656H370.749V81.696H365.821V90.688C365.821 91.4987 366.034 92.1067 366.461 92.512C366.887 92.896 367.442 93.088 368.125 93.088ZM381.381 78.336C382.938 78.336 384.271 78.656 385.381 79.296C386.511 79.9147 387.386 80.8107 388.005 81.984C388.623 83.136 388.933 84.544 388.933 86.208V88.256H377.477C377.519 89.8347 377.957 91.0613 378.789 91.936C379.621 92.7893 380.773 93.216 382.245 93.216C383.375 93.216 384.378 93.1093 385.253 92.896C386.149 92.6613 387.066 92.3307 388.005 91.904V95.136C387.151 95.5413 386.266 95.84 385.349 96.032C384.431 96.224 383.333 96.32 382.053 96.32C380.367 96.32 378.863 96 377.541 95.36C376.239 94.6987 375.215 93.7067 374.469 92.384C373.743 91.0613 373.381 89.4187 373.381 87.456C373.381 85.472 373.711 83.808 374.373 82.464C375.055 81.0987 375.994 80.0747 377.189 79.392C378.383 78.688 379.781 78.336 381.381 78.336ZM381.381 81.312C380.314 81.312 379.439 81.664 378.757 82.368C378.095 83.0507 377.701 84.0747 377.573 85.44H385.029C385.029 84.6293 384.89 83.9147 384.613 83.296C384.357 82.6773 383.962 82.1973 383.429 81.856C382.895 81.4933 382.213 81.312 381.381 81.312ZM397.03 96H392.998V71.68H397.03V96ZM406.218 96H402.186V71.68H406.218V96ZM418.285 78.336C420.525 78.336 422.221 78.8267 423.373 79.808C424.547 80.768 425.133 82.2827 425.133 84.352V96H422.285L421.485 93.6H421.357C420.867 94.2187 420.355 94.7413 419.821 95.168C419.309 95.5733 418.712 95.8613 418.029 96.032C417.368 96.224 416.557 96.32 415.597 96.32C414.573 96.32 413.645 96.128 412.813 95.744C412.003 95.36 411.363 94.7733 410.893 93.984C410.424 93.1733 410.189 92.16 410.189 90.944C410.189 89.152 410.84 87.808 412.141 86.912C413.464 85.9947 415.459 85.4933 418.125 85.408L421.133 85.312V84.448C421.133 83.3387 420.867 82.5493 420.333 82.08C419.8 81.6107 419.053 81.376 418.093 81.376C417.219 81.376 416.376 81.504 415.565 81.76C414.755 82.016 413.965 82.3147 413.197 82.656L411.917 79.84C412.771 79.392 413.741 79.0293 414.829 78.752C415.939 78.4747 417.091 78.336 418.285 78.336ZM419.021 87.872C417.251 87.936 416.024 88.2453 415.341 88.8C414.659 89.3333 414.317 90.0587 414.317 90.976C414.317 91.7867 414.563 92.3733 415.053 92.736C415.544 93.0987 416.173 93.28 416.941 93.28C418.115 93.28 419.107 92.9493 419.917 92.288C420.728 91.6053 421.133 90.6027 421.133 89.28V87.808L419.021 87.872Z" fill="white"/>
<defs>
<linearGradient id="paint0_linear_101_206" x1="1484" y1="65" x2="0" y2="65" gradientUnits="userSpaceOnUse">
<stop stop-color="#082A43"/>
<stop offset="1" stop-color="#0F4C7A"/>
</linearGradient>
</defs>
</svg>
