<svg width="1484" height="130" viewBox="0 0 1484 130" fill="none" xmlns="http://www.w3.org/2000/svg">
<rect width="1484" height="130" fill="url(#paint0_linear_101_359)"/>
<path d="M1411.73 60.7325C1412.09 60.3763 1412.54 60.1361 1413.04 60.0433C1413.53 59.9505 1414.05 60.0095 1414.51 60.2125L1439.51 71.2125C1439.98 71.423 1440.38 71.7751 1440.64 72.2202C1440.91 72.6653 1441.03 73.1815 1440.98 73.6977C1440.94 74.2138 1440.74 74.7045 1440.41 75.1021C1440.08 75.4997 1439.63 75.7846 1439.13 75.9175L1429.46 78.455L1426.92 88.135C1426.79 88.6362 1426.5 89.0839 1426.1 89.4162C1425.7 89.7484 1425.21 89.9487 1424.7 89.9893C1424.18 90.0299 1423.66 89.9089 1423.22 89.643C1422.77 89.3771 1422.42 88.9794 1422.21 88.505L1411.21 63.505C1411.01 63.0442 1410.95 62.5331 1411.04 62.0384C1411.14 61.5437 1411.38 61.0886 1411.73 60.7325ZM1401.86 75.5975C1402.09 75.3587 1402.37 75.1683 1402.67 75.0372C1402.98 74.9062 1403.31 74.8373 1403.64 74.8344C1403.97 74.8315 1404.3 74.8947 1404.61 75.0204C1404.91 75.1461 1405.19 75.3318 1405.43 75.5665C1405.66 75.8012 1405.85 76.0804 1405.97 76.3876C1406.1 76.6949 1406.16 77.0241 1406.16 77.356C1406.16 77.688 1406.09 78.016 1405.96 78.321C1405.83 78.626 1405.64 78.9019 1405.4 79.1325L1400.1 84.435C1399.62 84.8904 1398.99 85.1424 1398.34 85.1367C1397.68 85.131 1397.05 84.8681 1396.59 84.4045C1396.13 83.941 1395.86 83.314 1395.86 82.6585C1395.85 82.003 1396.1 81.3715 1396.56 80.9L1401.86 75.5975ZM1398.51 62.4875C1399.18 62.4875 1399.81 62.7509 1400.28 63.2197C1400.75 63.6886 1401.01 64.3245 1401.01 64.9875C1401.01 65.6505 1400.75 66.2864 1400.28 66.7553C1399.81 67.2241 1399.18 67.4875 1398.51 67.4875H1391.01C1390.35 67.4875 1389.71 67.2241 1389.24 66.7553C1388.78 66.2864 1388.51 65.6505 1388.51 64.9875C1388.51 64.3245 1388.78 63.6886 1389.24 63.2197C1389.71 62.7509 1390.35 62.4875 1391.01 62.4875H1398.51ZM1396.56 45.5625C1397.03 45.0938 1397.66 44.8305 1398.33 44.8305C1398.99 44.8305 1399.63 45.0938 1400.1 45.5625L1405.4 50.8675C1405.84 51.3411 1406.08 51.969 1406.07 52.6182C1406.06 53.2674 1405.8 53.887 1405.34 54.346C1404.88 54.8049 1404.26 55.0672 1403.61 55.0773C1402.96 55.0874 1402.34 54.8445 1401.86 54.4L1396.56 49.1C1396.09 48.6312 1395.83 47.9954 1395.83 47.3325C1395.83 46.6696 1396.09 46.0313 1396.56 45.5625ZM1431.92 45.55C1432.14 45.3058 1432.42 45.1102 1432.73 44.9748C1433.03 44.8393 1433.36 44.7669 1433.7 44.7617C1434.03 44.7565 1434.37 44.8186 1434.68 44.9445C1434.99 45.0703 1435.27 45.2573 1435.51 45.4942C1435.74 45.7312 1435.93 46.0133 1436.06 46.3239C1436.18 46.6344 1436.24 46.967 1436.24 47.302C1436.23 47.6369 1436.16 47.9673 1436.02 48.2736C1435.89 48.5799 1435.69 48.8559 1435.45 49.085L1430.15 54.385C1429.68 54.8407 1429.05 55.0932 1428.39 55.088C1427.73 55.0827 1427.11 54.8202 1426.64 54.357C1426.18 53.8939 1425.92 53.267 1425.91 52.6115C1425.9 51.956 1426.16 51.3243 1426.61 50.8525L1431.92 45.55ZM1413.5 47.5V40C1413.5 39.337 1413.76 38.7011 1414.23 38.2322C1414.7 37.7634 1415.34 37.5 1416 37.5C1416.66 37.5 1417.3 37.7634 1417.77 38.2322C1418.24 38.7011 1418.5 39.337 1418.5 40V47.5C1418.5 48.163 1418.24 48.7989 1417.77 49.2678C1417.3 49.7366 1416.66 50 1416 50C1415.34 50 1414.7 49.7366 1414.23 49.2678C1413.76 48.7989 1413.5 48.163 1413.5 47.5Z" fill="white"/>
<path d="M39.704 25.576C40.6533 25.576 41.432 25.6987 42.04 25.944C42.6587 26.1787 43.1173 26.536 43.416 27.016C43.7147 27.496 43.864 28.0987 43.864 28.824C43.864 29.432 43.752 29.9387 43.528 30.344C43.304 30.7493 43.016 31.0747 42.664 31.32C42.3227 31.5547 41.96 31.7413 41.576 31.88L44.712 37H43.032L40.264 32.28H37.992V37H36.552V25.576H39.704ZM39.624 26.824H37.992V31.064H39.704C40.3227 31.064 40.8293 30.984 41.224 30.824C41.6187 30.6533 41.9067 30.408 42.088 30.088C42.28 29.768 42.376 29.368 42.376 28.888C42.376 28.3867 42.2747 27.9867 42.072 27.688C41.88 27.3893 41.5813 27.1707 41.176 27.032C40.7707 26.8933 40.2533 26.824 39.624 26.824ZM49.6251 28.264C50.3611 28.264 50.9905 28.424 51.5131 28.744C52.0465 29.064 52.4518 29.5173 52.7291 30.104C53.0171 30.68 53.1611 31.3573 53.1611 32.136V32.984H47.2891C47.3105 33.9547 47.5558 34.696 48.0251 35.208C48.5051 35.7093 49.1718 35.96 50.0251 35.96C50.5691 35.96 51.0491 35.912 51.4651 35.816C51.8918 35.7093 52.3291 35.56 52.7771 35.368V36.6C52.3398 36.792 51.9078 36.9307 51.4811 37.016C51.0545 37.112 50.5478 37.16 49.9611 37.16C49.1505 37.16 48.4305 36.9947 47.8011 36.664C47.1825 36.3333 46.6971 35.8427 46.3451 35.192C46.0038 34.5307 45.8331 33.7253 45.8331 32.776C45.8331 31.8373 45.9878 31.032 46.2971 30.36C46.6171 29.688 47.0598 29.1707 47.6251 28.808C48.2011 28.4453 48.8678 28.264 49.6251 28.264ZM49.6091 29.416C48.9371 29.416 48.4038 29.6347 48.0091 30.072C47.6251 30.4987 47.3958 31.096 47.3211 31.864H51.6891C51.6891 31.3733 51.6145 30.9467 51.4651 30.584C51.3158 30.2213 51.0865 29.9387 50.7771 29.736C50.4785 29.5227 50.0891 29.416 49.6091 29.416ZM56.7524 37H55.3444V24.84H56.7524V37ZM62.7814 28.264C63.5174 28.264 64.1467 28.424 64.6694 28.744C65.2027 29.064 65.608 29.5173 65.8854 30.104C66.1734 30.68 66.3174 31.3573 66.3174 32.136V32.984H60.4454C60.4667 33.9547 60.712 34.696 61.1814 35.208C61.6614 35.7093 62.328 35.96 63.1814 35.96C63.7254 35.96 64.2054 35.912 64.6214 35.816C65.048 35.7093 65.4854 35.56 65.9334 35.368V36.6C65.496 36.792 65.064 36.9307 64.6374 37.016C64.2107 37.112 63.704 37.16 63.1174 37.16C62.3067 37.16 61.5867 36.9947 60.9574 36.664C60.3387 36.3333 59.8534 35.8427 59.5014 35.192C59.16 34.5307 58.9894 33.7253 58.9894 32.776C58.9894 31.8373 59.144 31.032 59.4534 30.36C59.7734 29.688 60.216 29.1707 60.7814 28.808C61.3574 28.4453 62.024 28.264 62.7814 28.264ZM62.7654 29.416C62.0934 29.416 61.56 29.6347 61.1654 30.072C60.7814 30.4987 60.552 31.096 60.4774 31.864H64.8454C64.8454 31.3733 64.7707 30.9467 64.6214 30.584C64.472 30.2213 64.2427 29.9387 63.9334 29.736C63.6347 29.5227 63.2454 29.416 62.7654 29.416ZM70.0761 37L66.8281 28.424H68.3321L70.1561 33.48C70.2415 33.7147 70.3321 33.976 70.4281 34.264C70.5241 34.552 70.6095 34.8293 70.6841 35.096C70.7588 35.352 70.8121 35.5707 70.8441 35.752H70.9081C70.9508 35.5707 71.0095 35.3467 71.0841 35.08C71.1695 34.8133 71.2601 34.536 71.3561 34.248C71.4628 33.96 71.5535 33.704 71.6281 33.48L73.4521 28.424H74.9561L71.6921 37H70.0761ZM79.5611 28.28C80.6065 28.28 81.3798 28.5093 81.8811 28.968C82.3825 29.4267 82.6331 30.1573 82.6331 31.16V37H81.6091L81.3371 35.784H81.2731C81.0278 36.0933 80.7718 36.3547 80.5051 36.568C80.2491 36.7707 79.9505 36.92 79.6091 37.016C79.2785 37.112 78.8731 37.16 78.3931 37.16C77.8811 37.16 77.4171 37.0693 77.0011 36.888C76.5958 36.7067 76.2758 36.4293 76.0411 36.056C75.8065 35.672 75.6891 35.192 75.6891 34.616C75.6891 33.7627 76.0251 33.1067 76.6971 32.648C77.3691 32.1787 78.4038 31.9227 79.8011 31.88L81.2571 31.832V31.32C81.2571 30.6053 81.1025 30.1093 80.7931 29.832C80.4838 29.5547 80.0465 29.416 79.4811 29.416C79.0331 29.416 78.6065 29.4853 78.2011 29.624C77.7958 29.752 77.4171 29.9013 77.0651 30.072L76.6331 29.016C77.0065 28.8133 77.4491 28.6427 77.9611 28.504C78.4731 28.3547 79.0065 28.28 79.5611 28.28ZM79.9771 32.856C78.9105 32.8987 78.1691 33.0693 77.7531 33.368C77.3478 33.6667 77.1451 34.088 77.1451 34.632C77.1451 35.112 77.2891 35.464 77.5771 35.688C77.8758 35.912 78.2545 36.024 78.7131 36.024C79.4385 36.024 80.0411 35.8267 80.5211 35.432C81.0011 35.0267 81.2411 34.408 81.2411 33.576V32.808L79.9771 32.856ZM89.4099 28.264C90.4339 28.264 91.2072 28.5147 91.7299 29.016C92.2525 29.5067 92.5139 30.3067 92.5139 31.416V37H91.1219V31.512C91.1219 30.8187 90.9672 30.3013 90.6579 29.96C90.3485 29.6187 89.8632 29.448 89.2019 29.448C88.2525 29.448 87.5965 29.7147 87.2339 30.248C86.8712 30.7813 86.6899 31.5493 86.6899 32.552V37H85.2819V28.424H86.4179L86.6259 29.592H86.7059C86.8979 29.2933 87.1325 29.048 87.4099 28.856C87.6979 28.6533 88.0125 28.504 88.3539 28.408C88.6952 28.312 89.0472 28.264 89.4099 28.264ZM98.0365 36.008C98.2498 36.008 98.4685 35.992 98.6925 35.96C98.9165 35.9173 99.0978 35.8747 99.2365 35.832V36.904C99.0872 36.9787 98.8738 37.0373 98.5965 37.08C98.3192 37.1333 98.0525 37.16 97.7965 37.16C97.3485 37.16 96.9325 37.0853 96.5485 36.936C96.1752 36.776 95.8712 36.504 95.6365 36.12C95.4018 35.736 95.2845 35.1973 95.2845 34.504V29.512H94.0685V28.84L95.3005 28.28L95.8605 26.456H96.6925V28.424H99.1725V29.512H96.6925V34.472C96.6925 34.9947 96.8152 35.384 97.0605 35.64C97.3165 35.8853 97.6418 36.008 98.0365 36.008ZM108.358 28.28C109.403 28.28 110.177 28.5093 110.678 28.968C111.179 29.4267 111.43 30.1573 111.43 31.16V37H110.406L110.134 35.784H110.07C109.825 36.0933 109.569 36.3547 109.302 36.568C109.046 36.7707 108.747 36.92 108.406 37.016C108.075 37.112 107.67 37.16 107.19 37.16C106.678 37.16 106.214 37.0693 105.798 36.888C105.393 36.7067 105.073 36.4293 104.838 36.056C104.603 35.672 104.486 35.192 104.486 34.616C104.486 33.7627 104.822 33.1067 105.494 32.648C106.166 32.1787 107.201 31.9227 108.598 31.88L110.054 31.832V31.32C110.054 30.6053 109.899 30.1093 109.59 29.832C109.281 29.5547 108.843 29.416 108.278 29.416C107.83 29.416 107.403 29.4853 106.998 29.624C106.593 29.752 106.214 29.9013 105.862 30.072L105.43 29.016C105.803 28.8133 106.246 28.6427 106.758 28.504C107.27 28.3547 107.803 28.28 108.358 28.28ZM108.774 32.856C107.707 32.8987 106.966 33.0693 106.55 33.368C106.145 33.6667 105.942 34.088 105.942 34.632C105.942 35.112 106.086 35.464 106.374 35.688C106.673 35.912 107.051 36.024 107.51 36.024C108.235 36.024 108.838 35.8267 109.318 35.432C109.798 35.0267 110.038 34.408 110.038 33.576V32.808L108.774 32.856ZM118.079 28.264C118.239 28.264 118.409 28.2747 118.591 28.296C118.783 28.3067 118.948 28.328 119.087 28.36L118.911 29.656C118.772 29.624 118.617 29.5973 118.447 29.576C118.287 29.5547 118.132 29.544 117.983 29.544C117.652 29.544 117.337 29.6133 117.039 29.752C116.74 29.8907 116.473 30.088 116.239 30.344C116.004 30.5893 115.817 30.888 115.679 31.24C115.551 31.592 115.487 31.9867 115.487 32.424V37H114.079V28.424H115.231L115.391 29.992H115.455C115.636 29.672 115.855 29.384 116.111 29.128C116.367 28.8613 116.66 28.6533 116.991 28.504C117.321 28.344 117.684 28.264 118.079 28.264ZM123.552 36.008C123.765 36.008 123.984 35.992 124.208 35.96C124.432 35.9173 124.613 35.8747 124.752 35.832V36.904C124.603 36.9787 124.389 37.0373 124.112 37.08C123.835 37.1333 123.568 37.16 123.312 37.16C122.864 37.16 122.448 37.0853 122.064 36.936C121.691 36.776 121.387 36.504 121.152 36.12C120.917 35.736 120.8 35.1973 120.8 34.504V29.512H119.584V28.84L120.816 28.28L121.376 26.456H122.208V28.424H124.688V29.512H122.208V34.472C122.208 34.9947 122.331 35.384 122.576 35.64C122.832 35.8853 123.157 36.008 123.552 36.008ZM127.877 28.424V37H126.469V28.424H127.877ZM127.189 25.208C127.403 25.208 127.589 25.2827 127.749 25.432C127.92 25.5707 128.005 25.7947 128.005 26.104C128.005 26.4027 127.92 26.6267 127.749 26.776C127.589 26.9253 127.403 27 127.189 27C126.955 27 126.757 26.9253 126.597 26.776C126.437 26.6267 126.357 26.4027 126.357 26.104C126.357 25.7947 126.437 25.5707 126.597 25.432C126.757 25.2827 126.955 25.208 127.189 25.208ZM134.034 37.16C133.277 37.16 132.6 37.0053 132.002 36.696C131.416 36.3867 130.952 35.9067 130.61 35.256C130.28 34.6053 130.114 33.7733 130.114 32.76C130.114 31.704 130.29 30.8453 130.642 30.184C130.994 29.5227 131.469 29.0373 132.066 28.728C132.674 28.4187 133.362 28.264 134.13 28.264C134.568 28.264 134.989 28.312 135.394 28.408C135.8 28.4933 136.13 28.6 136.386 28.728L135.954 29.896C135.698 29.8 135.4 29.7093 135.058 29.624C134.717 29.5387 134.397 29.496 134.098 29.496C133.522 29.496 133.048 29.6187 132.674 29.864C132.301 30.1093 132.024 30.472 131.842 30.952C131.661 31.432 131.57 32.0293 131.57 32.744C131.57 33.4267 131.661 34.008 131.842 34.488C132.024 34.968 132.296 35.3307 132.658 35.576C133.021 35.8213 133.474 35.944 134.018 35.944C134.488 35.944 134.898 35.896 135.25 35.8C135.613 35.704 135.944 35.5867 136.242 35.448V36.696C135.954 36.8453 135.634 36.9573 135.282 37.032C134.941 37.1173 134.525 37.16 134.034 37.16ZM139.69 37H138.282V24.84H139.69V37ZM145.719 28.264C146.455 28.264 147.084 28.424 147.607 28.744C148.14 29.064 148.546 29.5173 148.823 30.104C149.111 30.68 149.255 31.3573 149.255 32.136V32.984H143.383C143.404 33.9547 143.65 34.696 144.119 35.208C144.599 35.7093 145.266 35.96 146.119 35.96C146.663 35.96 147.143 35.912 147.559 35.816C147.986 35.7093 148.423 35.56 148.871 35.368V36.6C148.434 36.792 148.002 36.9307 147.575 37.016C147.148 37.112 146.642 37.16 146.055 37.16C145.244 37.16 144.524 36.9947 143.895 36.664C143.276 36.3333 142.791 35.8427 142.439 35.192C142.098 34.5307 141.927 33.7253 141.927 32.776C141.927 31.8373 142.082 31.032 142.391 30.36C142.711 29.688 143.154 29.1707 143.719 28.808C144.295 28.4453 144.962 28.264 145.719 28.264ZM145.703 29.416C145.031 29.416 144.498 29.6347 144.103 30.072C143.719 30.4987 143.49 31.096 143.415 31.864H147.783C147.783 31.3733 147.708 30.9467 147.559 30.584C147.41 30.2213 147.18 29.9387 146.871 29.736C146.572 29.5227 146.183 29.416 145.703 29.416Z" fill="white"/>
<path d="M35 52H155" stroke="#2A2C38" stroke-width="2" stroke-linecap="round"/>
<path d="M47.704 76.288C46.6587 76.288 45.7307 76.48 44.92 76.864C44.1093 77.248 43.416 77.8027 42.84 78.528C42.2853 79.2533 41.8587 80.128 41.56 81.152C41.2827 82.176 41.144 83.328 41.144 84.608C41.144 86.336 41.3787 87.8187 41.848 89.056C42.3173 90.272 43.032 91.2107 43.992 91.872C44.9733 92.5333 46.2 92.864 47.672 92.864C48.6533 92.864 49.592 92.768 50.488 92.576C51.4053 92.3627 52.3653 92.0853 53.368 91.744V95.232C52.4293 95.616 51.48 95.8933 50.52 96.064C49.5813 96.2347 48.4933 96.32 47.256 96.32C44.9093 96.32 42.968 95.84 41.432 94.88C39.896 93.8987 38.7547 92.5333 38.008 90.784C37.2613 89.0133 36.888 86.944 36.888 84.576C36.888 82.848 37.1227 81.2693 37.592 79.84C38.0827 78.4107 38.776 77.1733 39.672 76.128C40.5893 75.0827 41.72 74.272 43.064 73.696C44.408 73.12 45.9547 72.832 47.704 72.832C48.856 72.832 49.9867 72.9707 51.096 73.248C52.2267 73.504 53.2827 73.8667 54.264 74.336L52.856 77.696C52.0453 77.3333 51.2027 77.0133 50.328 76.736C49.4747 76.4373 48.6 76.288 47.704 76.288ZM73.2965 78.656V96H70.1285L69.5845 93.76H69.3925C69.0298 94.3573 68.5605 94.848 67.9845 95.232C67.4085 95.5947 66.7792 95.8613 66.0965 96.032C65.4138 96.224 64.7098 96.32 63.9845 96.32C62.7045 96.32 61.5952 96.096 60.6565 95.648C59.7178 95.2 59.0032 94.5173 58.5125 93.6C58.0218 92.6613 57.7765 91.456 57.7765 89.984V78.656H61.8085V89.184C61.8085 90.464 62.0645 91.4347 62.5765 92.096C63.0885 92.736 63.8992 93.056 65.0085 93.056C66.0965 93.056 66.9498 92.832 67.5685 92.384C68.1872 91.9147 68.6245 91.2427 68.8805 90.368C69.1365 89.4933 69.2645 88.416 69.2645 87.136V78.656H73.2965ZM82.4678 96H78.4358V71.68H82.4678V96ZM94.3433 93.088C94.8553 93.088 95.3459 93.0453 95.8153 92.96C96.2846 92.8533 96.7219 92.736 97.1273 92.608V95.616C96.7006 95.808 96.1459 95.968 95.4633 96.096C94.7806 96.2453 94.0659 96.32 93.3193 96.32C92.3379 96.32 91.4419 96.16 90.6313 95.84C89.8419 95.4987 89.2019 94.9227 88.7113 94.112C88.2419 93.3013 88.0073 92.1707 88.0073 90.72V81.696H85.6713V79.936L88.2313 78.528L89.5113 74.848H92.0393V78.656H96.9673V81.696H92.0393V90.688C92.0393 91.4987 92.2526 92.1067 92.6793 92.512C93.1059 92.896 93.6606 93.088 94.3433 93.088ZM116.015 78.656V96H112.847L112.303 93.76H112.111C111.749 94.3573 111.279 94.848 110.703 95.232C110.127 95.5947 109.498 95.8613 108.815 96.032C108.133 96.224 107.429 96.32 106.703 96.32C105.423 96.32 104.314 96.096 103.375 95.648C102.437 95.2 101.722 94.5173 101.231 93.6C100.741 92.6613 100.495 91.456 100.495 89.984V78.656H104.527V89.184C104.527 90.464 104.783 91.4347 105.295 92.096C105.807 92.736 106.618 93.056 107.727 93.056C108.815 93.056 109.669 92.832 110.287 92.384C110.906 91.9147 111.343 91.2427 111.599 90.368C111.855 89.4933 111.983 88.416 111.983 87.136V78.656H116.015ZM130.243 78.336C130.499 78.336 130.797 78.3467 131.139 78.368C131.48 78.3893 131.768 78.432 132.003 78.496L131.651 82.24C131.459 82.1973 131.203 82.1653 130.883 82.144C130.584 82.1013 130.317 82.08 130.083 82.08C129.443 82.08 128.824 82.1867 128.227 82.4C127.651 82.592 127.128 82.8907 126.659 83.296C126.211 83.68 125.848 84.1813 125.571 84.8C125.315 85.4187 125.187 86.1547 125.187 87.008V96H121.155V78.656H124.259L124.835 81.664H125.027C125.368 81.0453 125.795 80.4907 126.307 80C126.819 79.488 127.405 79.0827 128.067 78.784C128.749 78.4853 129.475 78.336 130.243 78.336ZM141.568 78.336C143.125 78.336 144.459 78.656 145.568 79.296C146.699 79.9147 147.573 80.8107 148.192 81.984C148.811 83.136 149.12 84.544 149.12 86.208V88.256H137.664C137.707 89.8347 138.144 91.0613 138.976 91.936C139.808 92.7893 140.96 93.216 142.432 93.216C143.563 93.216 144.565 93.1093 145.44 92.896C146.336 92.6613 147.253 92.3307 148.192 91.904V95.136C147.339 95.5413 146.453 95.84 145.536 96.032C144.619 96.224 143.52 96.32 142.24 96.32C140.555 96.32 139.051 96 137.728 95.36C136.427 94.6987 135.403 93.7067 134.656 92.384C133.931 91.0613 133.568 89.4187 133.568 87.456C133.568 85.472 133.899 83.808 134.56 82.464C135.243 81.0987 136.181 80.0747 137.376 79.392C138.571 78.688 139.968 78.336 141.568 78.336ZM141.568 81.312C140.501 81.312 139.627 81.664 138.944 82.368C138.283 83.0507 137.888 84.0747 137.76 85.44H145.216C145.216 84.6293 145.077 83.9147 144.8 83.296C144.544 82.6773 144.149 82.1973 143.616 81.856C143.083 81.4933 142.4 81.312 141.568 81.312ZM176.986 87.296C176.986 88.7467 176.794 90.0267 176.41 91.136C176.026 92.2453 175.472 93.1947 174.746 93.984C174.042 94.752 173.168 95.3387 172.122 95.744C171.098 96.128 169.957 96.32 168.698 96.32C167.504 96.32 166.405 96.128 165.402 95.744C164.4 95.3387 163.525 94.752 162.778 93.984C162.053 93.1947 161.488 92.2453 161.082 91.136C160.677 90.0267 160.474 88.7467 160.474 87.296C160.474 85.376 160.805 83.7547 161.466 82.432C162.128 81.088 163.077 80.0747 164.314 79.392C165.573 78.688 167.056 78.336 168.762 78.336C170.384 78.336 171.802 78.688 173.018 79.392C174.256 80.0747 175.226 81.088 175.93 82.432C176.634 83.7547 176.986 85.376 176.986 87.296ZM164.602 87.296C164.602 88.512 164.741 89.5573 165.018 90.432C165.317 91.2853 165.765 91.936 166.362 92.384C166.981 92.832 167.77 93.056 168.73 93.056C169.712 93.056 170.501 92.832 171.098 92.384C171.717 91.936 172.165 91.2853 172.442 90.432C172.72 89.5573 172.858 88.512 172.858 87.296C172.858 86.0587 172.709 85.024 172.41 84.192C172.133 83.3387 171.685 82.6987 171.066 82.272C170.469 81.824 169.69 81.6 168.73 81.6C167.28 81.6 166.224 82.0907 165.562 83.072C164.922 84.0533 164.602 85.4613 164.602 87.296ZM190.147 81.696H185.955V96H181.923V81.696H179.139V79.776L181.923 78.624V77.44C181.923 75.9467 182.157 74.7733 182.627 73.92C183.096 73.0667 183.779 72.4587 184.675 72.096C185.571 71.712 186.627 71.52 187.843 71.52C188.696 71.52 189.464 71.5947 190.147 71.744C190.829 71.872 191.395 72.0213 191.843 72.192L190.819 75.2C190.456 75.0933 190.051 74.9973 189.603 74.912C189.176 74.8053 188.707 74.752 188.195 74.752C187.427 74.752 186.861 74.9973 186.499 75.488C186.136 75.9787 185.955 76.6613 185.955 77.536V78.656H190.147V81.696ZM215.006 89.76C215.006 91.104 214.675 92.2667 214.014 93.248C213.353 94.2293 212.393 94.9867 211.134 95.52C209.897 96.0533 208.414 96.32 206.686 96.32C205.854 96.32 205.054 96.2667 204.286 96.16C203.539 96.0747 202.825 95.936 202.142 95.744C201.481 95.552 200.862 95.3173 200.286 95.04V91.2C201.246 91.6267 202.302 92.0213 203.454 92.384C204.606 92.7253 205.779 92.896 206.974 92.896C207.891 92.896 208.638 92.7787 209.214 92.544C209.811 92.288 210.249 91.9467 210.526 91.52C210.803 91.072 210.942 90.56 210.942 89.984C210.942 89.344 210.761 88.8 210.398 88.352C210.035 87.904 209.502 87.488 208.798 87.104C208.094 86.72 207.219 86.3147 206.174 85.888C205.47 85.5893 204.777 85.2587 204.094 84.896C203.433 84.512 202.835 84.0533 202.302 83.52C201.769 82.9867 201.342 82.3573 201.022 81.632C200.702 80.9067 200.542 80.0533 200.542 79.072C200.542 77.7707 200.851 76.6507 201.47 75.712C202.11 74.7733 202.995 74.0587 204.126 73.568C205.278 73.0773 206.611 72.832 208.126 72.832C209.342 72.832 210.483 72.96 211.55 73.216C212.617 73.472 213.673 73.8347 214.718 74.304L213.406 77.6C212.467 77.1947 211.561 76.8747 210.686 76.64C209.811 76.4053 208.915 76.288 207.998 76.288C207.273 76.288 206.654 76.4053 206.142 76.64C205.63 76.8533 205.246 77.1627 204.99 77.568C204.734 77.9733 204.606 78.4427 204.606 78.976C204.606 79.5947 204.766 80.1173 205.086 80.544C205.406 80.9707 205.897 81.376 206.558 81.76C207.241 82.1227 208.115 82.5387 209.182 83.008C210.419 83.5413 211.465 84.096 212.318 84.672C213.171 85.248 213.833 85.9413 214.302 86.752C214.771 87.5627 215.006 88.5653 215.006 89.76ZM222.936 83.232C222.936 83.7867 222.914 84.3733 222.872 84.992C222.829 85.5893 222.786 86.176 222.744 86.752H222.84C223.01 86.496 223.213 86.2187 223.448 85.92C223.682 85.6 223.917 85.2907 224.152 84.992C224.408 84.672 224.653 84.384 224.888 84.128L230.008 78.656H234.584L227.64 86.144L235.032 96H230.328L224.952 88.576L222.936 90.24V96H218.936V71.68H222.936V83.232ZM244.724 78.336C246.282 78.336 247.615 78.656 248.724 79.296C249.855 79.9147 250.73 80.8107 251.348 81.984C251.967 83.136 252.276 84.544 252.276 86.208V88.256H240.82C240.863 89.8347 241.3 91.0613 242.132 91.936C242.964 92.7893 244.116 93.216 245.588 93.216C246.719 93.216 247.722 93.1093 248.596 92.896C249.492 92.6613 250.41 92.3307 251.348 91.904V95.136C250.495 95.5413 249.61 95.84 248.692 96.032C247.775 96.224 246.676 96.32 245.396 96.32C243.711 96.32 242.207 96 240.884 95.36C239.583 94.6987 238.559 93.7067 237.812 92.384C237.087 91.0613 236.724 89.4187 236.724 87.456C236.724 85.472 237.055 83.808 237.716 82.464C238.399 81.0987 239.338 80.0747 240.532 79.392C241.727 78.688 243.124 78.336 244.724 78.336ZM244.724 81.312C243.658 81.312 242.783 81.664 242.1 82.368C241.439 83.0507 241.044 84.0747 240.916 85.44H248.372C248.372 84.6293 248.234 83.9147 247.956 83.296C247.7 82.6773 247.306 82.1973 246.772 81.856C246.239 81.4933 245.556 81.312 244.724 81.312ZM260.374 96H256.342V71.68H260.374V96ZM269.562 96H265.53V71.68H269.562V96ZM281.693 78.336C283.25 78.336 284.584 78.656 285.693 79.296C286.824 79.9147 287.698 80.8107 288.317 81.984C288.936 83.136 289.245 84.544 289.245 86.208V88.256H277.789C277.832 89.8347 278.269 91.0613 279.101 91.936C279.933 92.7893 281.085 93.216 282.557 93.216C283.688 93.216 284.69 93.1093 285.565 92.896C286.461 92.6613 287.378 92.3307 288.317 91.904V95.136C287.464 95.5413 286.578 95.84 285.661 96.032C284.744 96.224 283.645 96.32 282.365 96.32C280.68 96.32 279.176 96 277.853 95.36C276.552 94.6987 275.528 93.7067 274.781 92.384C274.056 91.0613 273.693 89.4187 273.693 87.456C273.693 85.472 274.024 83.808 274.685 82.464C275.368 81.0987 276.306 80.0747 277.501 79.392C278.696 78.688 280.093 78.336 281.693 78.336ZM281.693 81.312C280.626 81.312 279.752 81.664 279.069 82.368C278.408 83.0507 278.013 84.0747 277.885 85.44H285.341C285.341 84.6293 285.202 83.9147 284.925 83.296C284.669 82.6773 284.274 82.1973 283.741 81.856C283.208 81.4933 282.525 81.312 281.693 81.312ZM302.303 81.696H298.111V96H294.079V81.696H291.295V79.776L294.079 78.624V77.44C294.079 75.9467 294.313 74.7733 294.783 73.92C295.252 73.0667 295.935 72.4587 296.831 72.096C297.727 71.712 298.783 71.52 299.999 71.52C300.852 71.52 301.62 71.5947 302.303 71.744C302.985 71.872 303.551 72.0213 303.999 72.192L302.975 75.2C302.612 75.0933 302.207 74.9973 301.759 74.912C301.332 74.8053 300.863 74.752 300.351 74.752C299.583 74.752 299.017 74.9973 298.655 75.488C298.292 75.9787 298.111 76.6613 298.111 77.536V78.656H302.303V81.696ZM311.906 93.088C312.418 93.088 312.908 93.0453 313.378 92.96C313.847 92.8533 314.284 92.736 314.69 92.608V95.616C314.263 95.808 313.708 95.968 313.026 96.096C312.343 96.2453 311.628 96.32 310.882 96.32C309.9 96.32 309.004 96.16 308.194 95.84C307.404 95.4987 306.764 94.9227 306.274 94.112C305.804 93.3013 305.57 92.1707 305.57 90.72V81.696H303.234V79.936L305.794 78.528L307.074 74.848H309.602V78.656H314.53V81.696H309.602V90.688C309.602 91.4987 309.815 92.1067 310.242 92.512C310.668 92.896 311.223 93.088 311.906 93.088ZM325.162 78.336C326.719 78.336 328.052 78.656 329.162 79.296C330.292 79.9147 331.167 80.8107 331.786 81.984C332.404 83.136 332.714 84.544 332.714 86.208V88.256H321.258C321.3 89.8347 321.738 91.0613 322.57 91.936C323.402 92.7893 324.554 93.216 326.026 93.216C327.156 93.216 328.159 93.1093 329.034 92.896C329.93 92.6613 330.847 92.3307 331.786 91.904V95.136C330.932 95.5413 330.047 95.84 329.13 96.032C328.212 96.224 327.114 96.32 325.834 96.32C324.148 96.32 322.644 96 321.322 95.36C320.02 94.6987 318.996 93.7067 318.25 92.384C317.524 91.0613 317.162 89.4187 317.162 87.456C317.162 85.472 317.492 83.808 318.154 82.464C318.836 81.0987 319.775 80.0747 320.97 79.392C322.164 78.688 323.562 78.336 325.162 78.336ZM325.162 81.312C324.095 81.312 323.22 81.664 322.538 82.368C321.876 83.0507 321.482 84.0747 321.354 85.44H328.81C328.81 84.6293 328.671 83.9147 328.394 83.296C328.138 82.6773 327.743 82.1973 327.21 81.856C326.676 81.4933 325.994 81.312 325.162 81.312ZM340.812 96H336.78V71.68H340.812V96ZM349.999 96H345.967V71.68H349.999V96ZM362.067 78.336C364.307 78.336 366.003 78.8267 367.155 79.808C368.328 80.768 368.915 82.2827 368.915 84.352V96H366.067L365.267 93.6H365.139C364.648 94.2187 364.136 94.7413 363.603 95.168C363.091 95.5733 362.493 95.8613 361.811 96.032C361.149 96.224 360.339 96.32 359.379 96.32C358.355 96.32 357.427 96.128 356.595 95.744C355.784 95.36 355.144 94.7733 354.674 93.984C354.205 93.1733 353.971 92.16 353.971 90.944C353.971 89.152 354.621 87.808 355.923 86.912C357.245 85.9947 359.24 85.4933 361.907 85.408L364.915 85.312V84.448C364.915 83.3387 364.648 82.5493 364.115 82.08C363.581 81.6107 362.835 81.376 361.875 81.376C361 81.376 360.157 81.504 359.347 81.76C358.536 82.016 357.747 82.3147 356.979 82.656L355.699 79.84C356.552 79.392 357.523 79.0293 358.611 78.752C359.72 78.4747 360.872 78.336 362.067 78.336ZM362.803 87.872C361.032 87.936 359.805 88.2453 359.123 88.8C358.44 89.3333 358.099 90.0587 358.099 90.976C358.099 91.7867 358.344 92.3733 358.835 92.736C359.325 93.0987 359.955 93.28 360.723 93.28C361.896 93.28 362.888 92.9493 363.699 92.288C364.509 91.6053 364.915 90.6027 364.915 89.28V87.808L362.803 87.872Z" fill="white"/>
<defs>
<linearGradient id="paint0_linear_101_359" x1="1484" y1="65" x2="0" y2="65" gradientUnits="userSpaceOnUse">
<stop stop-color="#082A43"/>
<stop offset="1" stop-color="#0F4C7A"/>
</linearGradient>
</defs>
</svg>
